<?xml version="1.0" encoding="UTF-8"?>
<!DOCTYPE svg PUBLIC "-//W3C//DTD SVG 1.1//EN" "http://www.w3.org/Graphics/SVG/1.1/DTD/svg11.dtd">
<!-- Creator: CorelDRAW X7 -->
<svg xmlns="http://www.w3.org/2000/svg" xml:space="preserve" width="2271px" height="2160px" version="1.1" style="shape-rendering:geometricPrecision; text-rendering:geometricPrecision; image-rendering:optimizeQuality; fill-rule:evenodd; clip-rule:evenodd"
viewBox="0 0 2271 2160"
 xmlns:xlink="http://www.w3.org/1999/xlink">
 <defs>
  <style type="text/css">
   <![CDATA[
    .fil0 {fill:#144B9C}
    .fil4 {fill:#009B4C}
    .fil6 {fill:white}
    .fil2 {fill:#332C2B;fill-rule:nonzero}
    .fil1 {fill:#FDD100;fill-rule:nonzero}
    .fil3 {fill:#F08519;fill-rule:nonzero}
    .fil5 {fill:#ACCE22;fill-rule:nonzero}
   ]]>
  </style>
 </defs>
 <g id="Layer_x0020_1">
  <metadata id="CorelCorpID_0Corel-Layer"/>
  <g id="_1632984835248">
   <path class="fil0" d="M1136 96l1044 759 -399 1227 -1291 0 -399 -1227 1045 -759zm-300 449c0,0 0,0 0,0l0 0c0,0 0,0 0,0zm553 28c0,0 1,-1 2,-1 1,-1 2,-2 3,-2 1,-1 3,-2 5,-3 -4,-9 -6,-22 -4,-36 3,-22 15,-38 28,-41 11,6 17,26 14,47 -2,14 -8,26 -15,33 0,0 1,1 1,1 0,0 1,1 1,1 3,2 5,5 6,8 2,0 3,1 4,2 1,1 2,2 4,3 6,5 10,10 13,17l1 -1 1 5c0,0 1,1 1,1l0 0c0,2 0,3 0,7l0 0c-1,3 -3,7 -6,10 0,1 -1,1 -1,2l0 0c-3,2 -6,5 -9,6 -1,2 -2,3 -3,4 -2,2 -3,3 -5,4 -4,3 -8,5 -13,7 1,1 2,3 3,4 2,1 3,2 4,3 1,1 3,2 4,3 6,5 11,11 14,18l1 -1 1 5c0,0 1,0 1,1 0,1 0,2 0,7l0 0c-1,3 -3,7 -6,10 -1,1 -1,1 -2,2l0 0c-2,3 -5,5 -9,7 -1,1 -2,2 -3,4 -1,1 -3,2 -5,4 -4,3 -8,5 -13,7 1,1 2,3 3,5 1,0 3,1 4,2 1,1 3,2 4,3 6,5 11,12 14,18l2 0 1 5c0,0 0,0 0,1 1,1 1,2 0,7l0 0c0,3 -2,7 -6,11 0,0 -1,1 -1,1 -3,3 -6,6 -10,7 -1,2 -2,3 -3,4 -2,2 -3,3 -5,5 -4,3 -9,5 -14,7 1,1 2,3 3,5 2,1 3,2 4,3 2,0 3,2 5,3 6,5 11,12 14,19l2 -1 1 5c0,1 0,1 0,1 1,2 1,3 0,7l0 1c0,3 -2,7 -6,11l0 0c0,0 -1,1 -1,2 -3,2 -7,5 -10,7 -1,1 -3,3 -4,4 -1,2 -3,3 -5,4 -4,4 -9,6 -15,8 2,1 3,3 4,5 2,1 3,2 4,3 2,1 3,2 5,3 6,6 12,13 15,20l2 -1 1 5c0,1 0,1 0,1 1,2 1,3 0,8l0 0c0,3 -3,7 -6,11 -1,1 -1,2 -2,2 -3,3 -6,6 -10,8 -1,1 -2,3 -4,4 -1,2 -3,3 -5,5 -4,3 -10,6 -16,7 2,2 3,4 5,7 1,0 2,1 4,2 1,1 3,2 4,4 7,5 13,12 16,20l2 -1 1 5c0,1 0,1 0,1 1,2 1,3 0,8l0 0c0,4 -2,8 -6,12 -1,1 -1,1 -2,2 -3,3 -6,6 -11,8 -1,1 -2,3 -3,4 -2,2 -3,3 -5,5 -5,4 -11,6 -17,8 2,2 3,4 5,7 1,1 3,2 4,2 2,2 3,3 5,4 7,6 13,13 16,21l2 0 1 4c0,1 0,1 0,2l0 0c1,2 1,3 0,8l0 0c0,3 -3,8 -6,12 -1,1 -2,1 -2,2 -3,3 -7,6 -11,8 -1,1 -3,3 -4,4 -2,2 -3,4 -5,5 -5,4 -12,7 -18,9 2,2 4,5 5,7 2,1 3,2 5,3 1,1 3,2 5,4 7,6 13,14 16,22l2 -1 1 5c0,1 0,1 0,1 1,2 1,3 1,8l0 0c-1,4 -3,9 -7,13 -1,1 -1,1 -2,2 -3,3 -7,6 -12,8 -1,2 -2,3 -3,5 -2,2 -4,3 -6,5 -5,4 -12,7 -19,9 2,2 4,5 6,9 2,0 3,1 5,2 1,1 3,3 5,4 8,7 14,15 17,23l2 -1 1 5c0,1 0,1 0,2 1,2 1,3 0,8l0 0c0,4 -3,8 -7,13 0,0 -1,1 -2,2l0 0c-3,3 -7,6 -11,8 -1,2 -3,4 -4,5 -2,2 -4,4 -6,5 -6,5 -13,8 -21,10 3,2 5,6 7,10 2,0 4,1 5,2 2,2 4,3 5,4 9,7 15,15 18,24l2 0 1 4c0,1 0,1 0,2 1,2 1,3 1,8l0 0c-1,4 -4,9 -8,14 0,0 -1,1 -2,2l0 0c-3,3 -7,6 -12,8 -1,2 -2,4 -4,5 -1,2 -3,4 -6,6 -8,7 -20,10 -33,10l-2 17c-8,51 -41,76 -115,60 1,2 1,4 1,6l0 0 0 0c0,6 -2,12 -5,17 0,1 -2,3 -3,4 3,5 4,10 4,15l0 0 0 0c0,5 -2,11 -4,16 -1,2 -2,3 -4,4 3,5 4,10 4,15l0 0 0 0c0,5 -2,11 -4,16 -1,1 -2,3 -3,4 2,5 3,10 3,15l0 0 0 0c0,4 -1,10 -4,15 -3,6 -7,10 -13,10l0 0 -23 0 0 0c-6,0 -10,-4 -13,-10 -3,-5 -4,-11 -4,-15l0 0 0 0c0,-5 1,-10 3,-15 -1,-1 -2,-3 -3,-4 -2,-5 -4,-11 -4,-16l0 0 0 0c0,-5 1,-10 4,-15 -2,-1 -3,-2 -4,-4 -2,-5 -4,-11 -4,-16l0 0 0 0c0,-5 1,-10 4,-15 -1,-1 -3,-3 -4,-4 -2,-5 -4,-11 -4,-17l0 0 0 0c0,-2 0,-4 1,-6 -74,16 -107,-9 -115,-60l-5 -37 -9 -4c-2,1 -4,1 -6,1 -3,-1 -5,-1 -8,-1l0 0c-13,-2 -29,-8 -45,-18 0,0 0,0 0,0 0,0 0,0 0,0 0,0 1,0 0,0l0 0 0 0c0,0 0,0 0,0 0,0 0,0 0,0l0 0 0 0 0 0 0 0 0 0 0 0c-6,-4 -12,-8 -18,-13 -14,-12 -24,-25 -27,-37l-1 -3c1,-1 2,-1 4,-1 2,-1 5,-1 7,-1 3,0 6,0 9,0 24,2 47,15 66,30 12,10 21,21 25,31l-13 -86 -9 -5c-2,0 -4,0 -6,0 -2,0 -5,0 -7,-1 -13,-2 -29,-8 -44,-18l0 0 0 0 0 0c-3,-2 -6,-4 -9,-6l0 0c-3,-2 -6,-5 -8,-7 -14,-12 -23,-25 -26,-36l-1 -4 4 -1c3,0 5,-1 8,-1 2,0 5,1 8,1 13,2 31,8 47,19l0 0 0 0 0 0c3,1 6,3 9,6 3,2 5,4 7,6l0 0c12,10 20,20 25,30l-13 -86 -9 -5c-2,0 -4,0 -6,0 -3,0 -5,-1 -8,-1 -12,-3 -27,-9 -42,-19l0 0 0 0 0 0c-3,-2 -6,-4 -8,-6l-1 0c-2,-2 -5,-5 -7,-7 -13,-12 -22,-25 -24,-36l-1 -4 4 0 0 0c2,-1 5,-1 7,-1 2,0 5,0 8,1l0 0c13,2 30,8 46,19l0 0c0,0 0,0 0,0l0 0c2,2 5,4 8,6 2,2 5,4 7,6 11,10 19,21 23,30l-13 -86 -9 -5c-2,0 -4,0 -6,0 -2,-1 -5,-1 -7,-2 -12,-2 -27,-9 -40,-18l0 -1 -1 0 0 0c-2,-2 -5,-4 -8,-6 -3,-2 -5,-4 -8,-7 -12,-12 -20,-25 -22,-35l-1 -4 4 -1c3,0 5,0 7,0 3,0 5,0 8,1 13,2 29,9 44,19l0 0 0 0 0 0c3,2 5,4 8,6 2,2 5,5 7,7 10,9 18,20 22,29l-11 -71 -1 0 1 -1 -2 -14 -1 0 -9 -5c0,0 0,0 0,0l0 0c-2,0 -4,0 -6,-1 -3,0 -5,-1 -7,-1 -12,-3 -25,-10 -38,-19l0 0 0 0 0 0c-3,-3 -6,-5 -8,-7 -3,-2 -5,-4 -8,-7 -11,-12 -19,-24 -21,-35l0 -4 4 0c2,0 4,-1 7,0 2,0 4,0 7,0 12,3 28,10 42,21l0 0c0,0 0,0 0,0l0 0c0,0 0,0 0,0l0 0 0 0c0,0 0,0 0,0l0 0 0 0c0,0 0,0 1,0l0 0c0,0 0,0 0,0l0 0c0,0 0,0 0,0l0 0c2,2 5,4 7,6 2,2 5,4 7,6 10,10 17,20 20,29l-13 -85 0 -1 -10 -5c-2,0 -4,-1 -6,-1 -2,0 -4,-1 -6,-2 -17,-4 -32,-14 -45,-26 -2,-2 -5,-4 -7,-7l0 0c-10,-11 -18,-23 -20,-38l4 -1c2,0 5,0 7,0 2,0 4,1 7,1 12,3 27,10 41,21l0 0 0 0 0 0c2,2 5,4 7,6 2,2 4,4 6,6 10,10 16,21 19,30l-13 -86 0 0 -9 -6c-2,-1 -4,-1 -6,-1l0 0c-15,-3 -30,-12 -42,-22l0 0 0 0 0 0c-5,-4 -10,-9 -14,-14 -10,-11 -17,-23 -18,-38 6,0 11,0 17,1 17,5 33,15 46,28 10,9 20,21 24,35l-13 -86 -1 0 -9 -7c-2,0 -3,0 -5,0 -15,-4 -29,-13 -41,-23 -5,-4 -9,-9 -13,-14 -9,-11 -16,-23 -17,-37 4,-1 7,0 11,0 2,0 4,1 6,1 12,3 25,11 38,22l0 0c2,2 4,4 6,6 2,2 4,4 6,6 8,10 14,20 16,29l-9 -63c-12,-14 -16,-33 -19,-51l0 0c0,0 0,0 0,0l0 0c-3,-22 -2,-45 12,-64 21,16 28,45 29,69 0,3 0,6 0,9 0,15 -3,27 -7,36l11 75c0,-1 0,-2 0,-4 1,-1 1,-3 1,-5 3,-11 8,-23 16,-34l0 0 0 0c2,-3 4,-5 6,-7 1,-2 3,-4 5,-6 10,-11 21,-17 30,-19l4 -1 0 4c1,2 1,4 1,6 0,2 0,4 -1,6 -3,19 -17,38 -17,38 -2,2 -3,4 -4,6 -2,2 -4,4 -5,6 -9,9 -18,15 -27,18l-4 6 -2 4 12 83c0,-1 1,-2 1,-3 0,-2 1,-4 1,-6 3,-10 9,-22 17,-33l0 0c0,-1 0,0 0,-1l0 0c2,-2 4,-5 5,-7 2,-2 4,-4 6,-6 11,-11 22,-17 31,-19l4 -1 0 4 0 1 0 0c0,2 0,4 0,6 0,2 0,4 -1,6 -2,12 -8,25 -17,38l0 0c-2,3 -4,5 -6,7 -1,2 -3,4 -5,6 -9,10 -19,16 -27,19l-6 6 13 84c0,-2 0,-4 1,-6 3,-11 9,-24 19,-36l0 0 0 0c2,-3 4,-5 6,-7 2,-3 4,-5 6,-7 11,-11 23,-18 32,-19l4 0 1 4 0 0c0,2 0,4 0,6 -1,2 -1,5 -1,7l0 0c-3,12 -10,26 -20,39l0 0 0 0 0 0c-2,3 -4,5 -6,7l0 0c-1,3 -3,5 -5,7 -10,9 -20,16 -29,18l-5 7 0 0 12 81c0,-1 1,-3 1,-4 3,-12 10,-25 20,-37l0 0 0 0 0 0c3,-3 5,-6 7,-8 2,-2 5,-5 7,-7 12,-11 24,-18 34,-19l4 0 0 4 0 0 0 0c0,2 0,4 0,7 0,2 -1,4 -1,7 -3,12 -11,27 -21,41l0 0 -1 0 0 0c-2,2 -4,4 -6,7 -2,2 -4,4 -6,6 -10,10 -21,17 -30,19l-5 5 12 81c1,-1 1,-2 1,-3 6,-18 17,-34 29,-47 3,-2 5,-4 8,-7 12,-11 25,-18 35,-18l4 -1 1 4c0,3 0,5 -1,7 0,3 0,5 -1,8 -3,12 -11,28 -23,42l0 0 0 0 0 0c-2,2 -4,5 -7,7 -2,2 -4,4 -6,6 -11,11 -23,17 -33,20l-3 5 12 79c0,-1 0,-2 0,-3 5,-12 13,-26 24,-39l0 0 0 0c3,-3 5,-6 8,-8 2,-3 5,-5 7,-7 14,-12 27,-19 38,-19l4 -1 0 5c0,2 0,4 0,7 -1,2 -1,5 -2,8l0 0c-4,13 -12,28 -25,43l0 0 0 0 0 0c-2,2 -4,5 -7,7 -2,3 -4,5 -7,7 -11,10 -24,17 -34,19l-3 4 12 79c0,-1 0,-1 1,-2 4,-13 13,-27 25,-41 0,0 0,0 0,0l0 0c3,-3 5,-5 8,-8 3,-3 5,-5 8,-7 14,-12 28,-19 40,-19l3 0 1 4c0,0 0,0 0,0 0,2 -1,5 -1,8 0,2 -1,5 -2,7 -4,14 -13,30 -26,45l0 0c0,0 2,-2 0,0 -3,3 -5,5 -8,7 -2,3 -5,5 -7,7 -13,11 -25,18 -36,20l-2 2 12 79c2,-9 7,-17 13,-26 2,-3 4,-6 7,-9 13,-16 30,-32 50,-39 5,-3 11,-4 17,-4 1,-2 2,-4 3,-6 -2,-2 -3,-3 -4,-5l0 0c-3,-5 -5,-12 -5,-18l0 0 0 0c0,-5 2,-11 5,-16 -2,-2 -3,-4 -4,-5 -4,-6 -6,-12 -6,-18l0 0 0 0c0,-6 2,-12 5,-17 -1,-2 -2,-3 -4,-5 -3,-5 -5,-12 -5,-18l0 0 0 0c0,-6 2,-12 5,-17 -1,-2 -3,-3 -4,-5 -4,-6 -6,-12 -6,-18l0 0 0 0c0,-6 2,-13 6,-18 -2,-2 -3,-3 -5,-5 -3,-6 -6,-13 -6,-19l0 0 0 0c0,-6 3,-12 6,-18 -1,-1 -3,-3 -4,-5 -4,-5 -6,-12 -6,-18l0 0 0 0c0,-7 2,-14 6,-19 -2,-1 -3,-3 -5,-5 -4,-6 -6,-13 -6,-19l0 0 0 0c0,-6 2,-13 6,-19 0,0 0,0 0,0 -2,-1 -3,-3 -5,-5 -4,-6 -6,-13 -6,-19l0 0 0 0c0,-7 2,-14 6,-19 0,0 1,0 1,-1 -2,-1 -4,-3 -5,-5 -4,-6 -7,-13 -7,-19l0 0 0 0c0,-7 3,-14 7,-20 0,0 0,0 0,0 -2,-2 -4,-3 -5,-6 -4,-5 -7,-13 -7,-19l0 0 0 0c0,-7 3,-14 7,-20 0,0 0,0 0,0 -2,-2 -4,-4 -5,-6 -5,-6 -7,-13 -7,-20l0 0 0 0c0,-6 2,-14 7,-19 0,-1 0,-1 0,-1 -2,-2 -4,-4 -5,-6 -5,-6 -8,-13 -8,-20l0 0 0 0c0,-7 3,-14 8,-20 0,0 0,-1 0,-1 -2,-2 -4,-4 -5,-6 -5,-6 -8,-13 -8,-20l0 0 0 0c0,-7 3,-15 8,-21 3,-4 8,-8 14,-10 -16,-16 -25,-37 -25,-59l0 0c0,-2 0,-3 0,-4 0,0 0,0 0,0l0 0c0,-1 0,-1 0,-1 -4,-2 -7,-4 -11,-7 -6,-6 -10,-14 -10,-23l0 0 0 -5 0 0c0,-9 4,-17 10,-23 4,-3 7,-5 11,-6 0,-1 0,-1 0,-1l0 0c0,0 0,0 0,0 0,-2 0,-3 0,-4l0 0c0,-29 15,-54 38,-72 20,-16 48,-27 78,-29 -1,-2 -2,-4 -3,-6 -3,-6 -5,-15 -5,-25l0 0 0 0c0,-9 2,-18 5,-25 3,-8 8,-12 14,-12l0 0 0 0c7,0 12,4 15,12 3,7 5,16 5,25l0 0 0 0c0,10 -2,19 -5,25 -1,2 -2,4 -3,6 30,2 57,13 78,29 23,18 38,43 38,71l0 1c0,1 0,2 0,4 0,0 0,0 0,0l0 0c0,0 0,0 0,1 4,1 7,3 11,6 6,6 10,14 10,23l0 0 0 5 0 0c0,9 -4,17 -10,23 -4,3 -7,5 -11,7 0,0 0,0 0,1l0 0c0,0 0,0 0,0 0,1 0,2 0,4l0 0c0,22 -9,43 -25,59 6,2 11,6 14,10 5,6 8,14 8,21l0 0 0 0c0,7 -3,14 -8,20 -1,2 -3,4 -5,6 0,0 0,1 0,1 5,6 8,13 8,20l0 0 0 0c0,7 -3,14 -8,20 -1,2 -3,4 -5,6 0,0 0,0 0,1 4,5 7,13 7,19l0 0 0 0c0,7 -3,14 -7,20 -1,2 -3,4 -5,6 0,0 0,0 0,0 4,6 7,13 7,20l0 0 0 0c0,6 -3,14 -7,19 -1,3 -3,4 -5,6 0,0 0,0 0,0 4,6 7,13 7,20l0 0 0 0c0,6 -3,13 -7,19 -1,2 -3,4 -5,5 0,1 0,1 1,1 3,5 6,12 6,19l0 0 0 0c0,6 -3,13 -7,19 -1,2 -3,4 -4,5 0,0 0,0 0,0 4,6 6,13 6,19l0 0 0 0c0,6 -2,13 -6,19 -2,2 -3,4 -5,5 4,5 6,12 6,19l0 0 0 0c0,6 -2,13 -6,18 -1,2 -3,4 -4,5 3,6 6,12 6,18l0 0 0 0c0,6 -3,13 -6,19 -2,2 -3,3 -5,5 4,5 6,12 6,18l0 0 0 0c0,6 -2,12 -6,18 -1,2 -3,3 -4,5 3,5 5,11 5,17l0 0 0 0c0,6 -2,13 -5,18 -2,2 -3,3 -4,5 3,5 5,11 5,17l0 0 0 0c0,6 -2,12 -6,18 -1,1 -2,3 -4,5 3,5 5,11 5,16l0 0 0 0c0,6 -2,13 -5,18l0 0c-1,2 -2,3 -4,5 3,5 5,11 5,16l0 0 0 0c0,6 -2,12 -5,17 -1,2 -3,4 -4,5 3,5 5,11 5,16l0 0 0 0c0,6 -2,12 -5,17 -2,2 -3,4 -4,5 3,5 4,11 4,16l0 0 0 0c0,5 -2,12 -5,17 -1,1 -2,3 -3,4 3,5 4,11 4,16l0 0 0 0c0,5 -2,11 -5,16 -1,2 -2,4 -3,5 2,5 4,11 4,15l0 0 0 0c0,5 -1,10 -4,15 65,14 93,-7 99,-49l3 -15c-4,-1 -8,-2 -11,-4 -2,-1 -4,-2 -6,-3 -10,-7 -17,-16 -20,-26 -1,-1 -2,-2 -3,-3 -1,-1 -2,-3 -3,-4 -5,-8 -8,-17 -7,-22 1,-5 2,-6 3,-8 0,0 0,-1 0,-1l3 -5 1 2c1,-1 2,-2 3,-4 2,-1 3,-2 5,-4 7,-6 17,-11 28,-14 1,0 2,-1 3,-2 1,-1 2,-2 4,-3 1,-1 2,-1 3,-2 -1,-1 -3,-2 -5,-3l0 0c-9,-6 -16,-15 -19,-24 -1,-1 -2,-2 -3,-3 -1,-2 -2,-3 -3,-5 -5,-7 -7,-16 -7,-21 1,-5 2,-6 3,-8l0 0c0,0 0,-1 1,-1l2 -4 2 1c0,-1 1,-2 2,-3 1,-1 3,-3 4,-4 8,-6 17,-11 28,-13 1,-1 2,-2 3,-3 1,-1 2,-2 4,-3 0,0 1,0 2,-1 -1,0 -3,-1 -4,-2l0 0c-9,-6 -16,-15 -18,-24 -1,-1 -2,-2 -3,-3 -1,-1 -2,-3 -3,-4 -5,-7 -8,-16 -7,-21 1,-5 1,-6 3,-7l0 0c0,-1 0,-1 0,-2l3 -4 1 1c1,-1 2,-1 3,-2 1,-2 2,-3 4,-4 7,-7 16,-11 26,-13 1,-1 2,-2 3,-3 1,-1 3,-1 4,-2 0,-1 1,-1 1,-1 -1,-1 -2,-1 -3,-2 -8,-6 -15,-14 -18,-23 -1,-1 -2,-2 -2,-3l0 0c-2,-1 -3,-3 -4,-4 -4,-7 -7,-15 -6,-20 1,-5 1,-6 3,-8l0 0c0,0 0,0 0,-1l3 -4 1 1c1,0 2,-1 2,-2l0 0c2,-1 3,-3 4,-4 7,-6 16,-10 26,-13 1,0 2,-1 3,-2 1,-1 2,-2 4,-2 0,-1 0,-1 0,-1 -1,0 -1,-1 -2,-1l0 0c-8,-6 -15,-14 -17,-23 -1,-1 -2,-2 -3,-3l0 0c-1,-1 -2,-2 -3,-3 -5,-7 -7,-15 -6,-20 0,-5 1,-6 2,-7 0,-1 1,-1 1,-1l2 -5 2 2c0,-1 1,-2 2,-3 1,-1 2,-2 4,-3 6,-6 15,-11 25,-13 1,0 1,-1 2,-2l0 0c1,-1 3,-2 4,-2 0,0 0,0 0,0 -1,-1 -1,-1 -2,-1l0 0c-8,-6 -14,-14 -17,-22 -1,-1 -1,-2 -2,-3 -1,-1 -2,-2 -3,-4 -5,-6 -7,-14 -6,-19 1,-4 1,-5 2,-7l0 0c0,0 1,-1 1,-1l2 -4 2 1c0,-1 1,-1 2,-2l0 0c1,-1 2,-3 3,-4 7,-5 15,-10 25,-12 1,0 1,-1 2,-2 1,-1 2,-1 3,-2 0,0 0,0 -1,-1l0 0c-8,-5 -14,-13 -16,-21 -1,-1 -2,-2 -3,-3 -1,-1 -2,-2 -3,-3 -4,-7 -6,-14 -5,-19 0,-4 1,-5 2,-7 0,0 0,0 0,-1l3 -4 1 1c1,0 1,-1 2,-2 1,-1 2,-2 4,-3 6,-6 14,-10 23,-12 1,0 2,-1 3,-2 1,0 1,-1 2,-2 0,0 0,0 0,0l0 0c-8,-5 -14,-13 -16,-21 -1,-1 -2,-2 -3,-2 -1,-1 -2,-3 -3,-4 -4,-6 -6,-14 -5,-18 1,-4 1,-5 2,-7 0,0 0,0 1,-1l2 -4 1 1c1,0 2,-1 2,-1 1,-2 2,-3 4,-4 6,-5 14,-9 22,-11 1,-1 2,-1 3,-2 1,-1 1,-1 2,-2 0,0 0,0 0,0 -8,-5 -13,-12 -16,-20 -1,-1 -1,-2 -2,-3 -1,-1 -2,-2 -3,-3 -4,-6 -6,-13 -5,-17 0,-5 1,-6 2,-7 0,0 0,-1 0,-1l3 -4 1 1c1,-1 1,-1 2,-2 1,-1 2,-2 3,-3 6,-5 14,-9 22,-11 1,-1 2,-1 2,-2 1,0 2,-1 3,-2 0,0 -1,0 -1,0 -7,-5 -12,-12 -15,-19 0,-1 -1,-2 -2,-3l0 0c-1,-1 -2,-2 -2,-3 -4,-6 -6,-13 -6,-17 1,-4 1,-5 2,-6l0 0c1,0 1,-1 1,-1l2 -4 2 1c0,-1 1,-1 1,-2 1,-1 2,-2 3,-3 6,-5 14,-9 22,-11zm-294 904c-3,-5 -4,-10 -4,-15l0 0 0 0c0,-4 1,-10 4,-15 -1,-1 -2,-3 -3,-5 -3,-5 -5,-11 -5,-16l0 0 0 0c0,-5 1,-11 4,-16 -1,-1 -3,-3 -4,-4 -3,-5 -4,-12 -4,-17l0 0 0 0c0,-5 1,-11 4,-16 -1,-1 -3,-3 -4,-5 -3,-5 -5,-11 -5,-17l0 0 0 0c0,-5 2,-11 5,-16 -1,-1 -3,-3 -4,-5 -1,-2 -3,-5 -3,-8 -3,9 -8,18 -14,28 -2,3 -4,6 -6,9 -13,16 -30,32 -49,40 -4,2 -9,3 -13,4l-2 2 4 23c6,42 34,63 99,49zm-259 -932c0,0 0,0 0,0l0 0zm0 0l0 0c0,0 0,0 0,0l0 0c0,0 0,0 0,0l0 0zm40 381c1,0 1,0 1,0l-1 0zm0 0l0 0c0,0 0,0 0,0l0 0zm761 881c-3,2 -6,3 -9,4 -1,0 -2,1 -3,1l1 3 0 0 0 0c-3,3 -7,6 -10,10 -3,3 -6,7 -8,11 -13,20 -21,43 -24,66 3,6 4,12 4,16 0,4 -2,8 -5,10 -2,3 -5,4 -9,5 -6,1 -13,0 -20,-4l0 0c-1,0 -2,-1 -3,-1l0 0c-1,-1 -2,-1 -3,-2l0 0c-6,-4 -9,-8 -13,-12 -4,-5 -9,-11 -25,-21 -14,-8 -35,-19 -61,-30 -93,-38 -193,-32 -291,-32 -6,0 -12,0 -17,0l0 0 -6 0c0,0 0,0 0,0l-5 0 0 0c-5,0 -11,0 -17,0 -98,0 -199,-6 -291,32 -26,11 -48,22 -61,30 -16,10 -21,16 -25,21 -4,4 -7,8 -13,12l0 0c-1,1 -2,1 -3,2l0 0c-1,0 -2,1 -3,1l0 0c-7,4 -14,5 -20,4 -4,-1 -7,-2 -9,-5 -3,-2 -5,-6 -5,-10 -1,-4 1,-10 4,-16 -4,-23 -11,-46 -24,-66 -3,-4 -5,-8 -8,-11 -3,-4 -7,-7 -10,-10l0 0 0 0 1 -3c-1,0 -2,-1 -3,-1 -3,-1 -6,-2 -9,-4 -3,-2 -6,-6 -8,-9l0 0c-1,-3 -2,-6 -2,-10 1,-3 2,-5 4,-8 2,-3 6,-6 10,-8 19,-10 41,-26 71,-48 1,-1 3,-3 4,-4 0,0 0,0 0,0 -6,-1 -12,-3 -17,-6 -11,-5 -19,-12 -26,-19 -6,-7 -10,-17 -13,-24l-10 8c-25,19 -56,15 -87,2 -30,-12 -59,-32 -78,-46l-14 -11 17 -5 64 -20c-22,-1 -46,-12 -68,-27 -28,-19 -54,-43 -70,-58l-15 -15 21 -1 48 -1c-56,-7 -91,-56 -120,-96 -1,-1 -2,-2 -6,-9l-13 -17 21 3 87 14 -10 -2c-34,-6 -58,-33 -76,-65 -17,-31 -28,-66 -36,-92l-6 -19 18 9 61 29c-7,-4 -12,-9 -18,-15 -8,-8 -15,-17 -21,-28 -30,-52 -37,-127 -33,-163l3 -16 69 58c-33,-50 -49,-172 -13,-218l7 -9 7 9 53 70c-2,-4 -4,-8 -5,-13 -3,-10 -6,-22 -7,-35 -6,-62 11,-144 28,-179l8 -16 8 16 24 50c-4,-26 0,-51 9,-76 13,-33 34,-64 53,-92l10 -15 5 18 18 59c0,-3 0,-6 0,-8 0,-10 2,-20 4,-30 14,-53 51,-98 89,-136l49 318 125 540c5,22 11,41 20,57 9,16 21,30 35,44l2 1c1,-3 2,-5 3,-8 3,-7 6,-14 8,-23l3 -11 8 9c8,10 14,35 17,58 0,5 0,9 0,13 1,4 1,8 0,12l0 0 0 0 0 6c1,1 2,3 3,5 10,12 18,19 33,24 5,2 11,4 18,4 8,0 15,1 20,4 6,3 10,8 9,16l0 0c0,1 0,-1 0,0l0 0c0,4 -2,7 -4,10 1,0 1,0 1,0l0 0 9 -3 0 9c0,25 10,47 28,62 3,3 6,5 9,8l113 0c3,-3 6,-5 9,-8 18,-15 28,-37 28,-62l0 -9 9 3 0 0c0,0 0,0 1,0 -2,-3 -4,-6 -4,-10l0 0c0,-1 0,1 0,0l0 0c-1,-8 2,-13 9,-16 5,-3 12,-4 20,-4 7,0 13,-2 18,-4 15,-5 23,-12 33,-24 1,-2 2,-4 3,-5l0 -6 0 0 0 0c-1,-4 -1,-8 -1,-12 1,-4 1,-8 1,-13 2,-23 9,-48 17,-58l8 -9 3 11c2,9 5,16 8,23 1,3 2,5 3,8l2 -1c14,-14 26,-28 34,-44 9,-16 16,-35 21,-57l125 -540 49 -318c38,38 75,83 89,136 2,10 4,20 4,30 0,2 0,5 0,8l18 -59 5 -18 10 15c19,28 40,59 53,92 9,25 13,50 9,76l24 -50 8 -16 8 16c17,35 34,117 28,179 -1,13 -4,25 -7,35 -1,5 -3,9 -5,13l53 -70 6 -9 8 9c36,46 20,168 -13,218l69 -58 2 16c5,36 -2,111 -32,163 -6,11 -13,20 -21,28 -6,6 -12,11 -18,15l61 -29 18 -9 -6 19c-8,26 -19,61 -36,92 -18,32 -42,59 -76,65l-10 2 87 -14 21 -3 -13 17c-5,7 -5,8 -6,9 -29,40 -64,89 -120,96l48 1 21 1 -15 15c-16,15 -42,39 -70,58 -22,15 -46,26 -69,27l65 20 17 5 -14 11c-19,14 -48,34 -78,46 -31,13 -62,17 -87,-2l-10 -8c-3,7 -7,17 -13,24 -7,7 -15,14 -26,19 -5,3 -11,5 -18,6 0,0 0,0 0,0 2,1 4,3 5,4 30,22 52,38 71,48 4,2 8,5 10,8 2,3 3,5 4,8 0,4 -1,7 -2,10l0 0c-2,3 -5,7 -8,9zm-903 -197l-57 45c13,-1 34,-5 47,-8 14,-3 31,-9 45,-16 -12,-4 -27,-13 -35,-21zm803 0c-8,8 -23,17 -35,21 14,7 31,13 45,16 13,3 34,7 47,8l-57 -45z"/>
   <path class="fil1" d="M677 502l34 223 4 61 42 340 -8 10c-3,2 -8,12 -11,18l-137 -470c-18,-60 40,-146 76,-182zm397 805c0,16 -11,39 -30,59 -17,19 -37,31 -52,34l-1 0 -1 -10c3,-15 13,-33 28,-49 19,-21 41,-33 56,-34zm-289 -709c13,0 31,8 48,23 16,14 26,30 28,42l5 4 0 4 -8 -5c-12,-1 -29,-10 -44,-23 -17,-15 -28,-32 -29,-45zm155 1c1,11 -5,29 -17,46 -11,16 -24,27 -35,30l-5 6 -1 -3 3 -6c0,-11 6,-27 16,-43 12,-17 27,-28 39,-30zm17 101c2,12 -5,30 -17,48 -12,16 -26,27 -37,30 -2,2 -3,4 -5,6l0 -4c0,-2 1,-3 2,-4 0,-12 6,-29 18,-45 12,-18 28,-29 39,-31zm-160 2c13,-1 32,7 50,22 16,13 27,29 30,42 1,1 3,2 4,4l1 4c-3,-2 -6,-4 -8,-5 -13,-1 -30,-9 -46,-22 -18,-15 -30,-33 -31,-45zm12 103c13,-1 33,7 51,21 18,14 29,30 33,43 1,1 2,2 4,3l0 5c-2,-2 -5,-4 -8,-5 -12,0 -31,-8 -48,-21 -18,-15 -31,-33 -32,-46zm168 -4c1,13 -6,32 -20,50 -13,17 -28,28 -39,31 -2,1 -3,3 -4,5l-1 -5c1,-1 1,-2 2,-3 0,-13 7,-30 20,-46 13,-18 30,-30 42,-32zm19 101c1,13 -7,34 -21,52 -14,17 -30,29 -42,31 -1,2 -3,3 -4,4l0 -5c0,-1 0,-1 1,-2 0,-13 8,-31 21,-48 15,-18 33,-30 45,-32zm-176 7c14,-2 34,5 54,20 18,13 31,30 34,43 2,1 3,2 4,3l1 4c-3,-1 -5,-3 -8,-4 -13,0 -32,-7 -50,-21 -20,-14 -33,-32 -35,-45zm12 103c14,-2 35,5 56,20 19,13 32,29 36,43 1,1 2,2 4,3l0 4c-2,-1 -5,-3 -7,-4 -14,1 -33,-7 -52,-20 -21,-14 -35,-32 -37,-46zm184 -9c1,14 -8,35 -24,54 -15,18 -32,29 -45,32 0,1 -1,2 -2,3l-1 -6c0,0 0,0 0,0 1,-14 10,-33 24,-50 16,-19 34,-31 48,-33zm19 102c1,14 -9,36 -26,55 -15,18 -33,30 -47,33 0,0 -1,1 -2,2l-1 -7c2,-14 11,-33 26,-51 17,-19 36,-31 50,-32zm-191 11c14,-3 36,4 57,18 20,14 34,30 38,43 2,1 3,2 4,3l1 5c-3,-1 -5,-3 -8,-4 -14,1 -34,-6 -53,-19 -22,-14 -37,-33 -39,-46zm11 103c15,-3 38,4 60,18 21,13 35,30 40,43 1,1 3,2 4,3l0 5c-2,-1 -4,-3 -7,-4 -14,1 -35,-5 -56,-18 -22,-14 -37,-33 -41,-47zm200 -13c0,15 -10,37 -28,57 -17,19 -36,31 -50,33 0,1 -1,1 -1,1l-1 -9c2,-14 12,-32 27,-49 18,-20 38,-32 53,-33zm-188 117c14,-4 38,2 62,17 21,13 37,30 42,43l3 3 1 5 -7 -4c-15,2 -37,-4 -58,-17 -23,-14 -39,-33 -43,-47zm-18 -836c11,9 20,29 23,54 3,21 1,42 -5,53 -3,5 -2,12 -2,18 -2,-7 -2,-12 -7,-17 -8,-8 -16,-27 -18,-50 -2,-24 1,-47 9,-58zm258 1036c2,1 4,1 6,1l0 0 45 0 0 0c2,0 4,0 6,-1 2,3 3,7 3,11 0,8 -6,20 -13,20l-37 0c-7,0 -13,-12 -13,-20 0,-4 1,-8 3,-11zm-3 -950l25 23 -50 0 25 -23zm31 -75c67,0 121,42 122,94l-25 -23 -3 -3 -4 3 -27 26 -28 -26 -3 -3 -4 3 -28 26 -27 -26 -4 -3 -3 3 -28 26 -27 -26 -4 -3 -4 3 -24 23c0,-52 55,-94 121,-94zm0 -68c8,0 15,14 15,32 0,18 -7,32 -15,32 -7,0 -14,-14 -14,-32 0,-18 7,-32 14,-32zm96 297l-192 0c-15,-16 -25,-36 -25,-58l24 23 4 4 4 -4 27 -25 28 25 3 4 4 -4 27 -25 28 25 4 4 3 -4 28 -25 27 25 4 4 3 -4 25 -23c0,22 -10,42 -26,58zm19 -126c15,0 28,12 28,27l0 5c0,15 -13,27 -28,27l-229 0c-16,0 -28,-12 -28,-27l0 -5c0,-15 12,-27 28,-27l229 0zm-146 87l-25 -23 50 0 -25 23zm63 0l-25 -23 49 0 -24 23zm62 0l-25 -23 46 0 0 0c1,0 3,0 4,0l-25 23zm-187 0l-25 -23c1,0 3,0 4,0l0 0 46 0 -25 23zm125 -115l24 23 -49 0 25 -23zm62 0l25 23c-1,0 -3,0 -4,0l0 0 -46 0 25 -23zm-187 0l25 23 -46 0 0 0c-1,0 -3,0 -4,0l25 -23zm192 159c10,0 21,14 21,26 0,11 -11,25 -21,25l-197 0c-11,0 -21,-14 -21,-25 0,-12 10,-26 21,-26l197 0zm-205 55c2,1 5,2 8,2l0 0 197 0 0 0c3,0 5,-1 8,-2 4,5 7,12 7,18 0,11 -10,25 -20,25 -62,0 -125,0 -187,0 -10,0 -20,-14 -20,-25 0,-6 3,-13 7,-18zm5 47c2,1 5,2 8,2l0 0 187 0 0 0c3,0 6,-1 8,-2 4,5 7,12 7,17 0,11 -10,25 -20,25 -59,0 -118,0 -177,0 -11,0 -20,-14 -20,-25 0,-5 3,-12 7,-17zm5 46c2,1 5,2 8,2l0 0 177 0 0 0c3,0 6,-1 8,-2 4,5 7,11 7,17 0,11 -9,25 -19,25 -56,0 -113,0 -169,0 -10,0 -19,-14 -19,-25 0,-6 3,-12 7,-17zm64 607c2,1 4,2 6,2l0 0 52 0 0 0c3,0 5,-1 7,-2 2,3 3,8 3,11 0,9 -6,21 -13,21l-45 0c-7,0 -13,-12 -13,-21 0,-3 1,-8 3,-11zm-4 -37c2,2 4,2 7,2l0 0 59 0 0 0c3,0 5,0 7,-2 2,4 3,9 3,12 0,9 -6,21 -14,21l-52 0c-7,0 -13,-12 -13,-21 0,-3 1,-8 3,-12zm-4 -36c2,1 5,1 7,1l0 0 67 0 0 0c2,0 5,0 7,-1 2,3 3,8 3,12 0,9 -6,21 -14,21l-59 0c-8,0 -14,-12 -14,-21 0,-4 1,-9 3,-12zm-4 -38c2,1 5,2 7,2l0 0 75 0 0 0c2,0 5,-1 7,-2 2,4 3,9 3,13 0,9 -6,21 -14,21l-67 0c-8,0 -14,-12 -14,-21 0,-4 1,-9 3,-13zm-4 -38c2,2 5,2 7,2l0 0 83 0 0 0c2,0 5,0 7,-2 2,4 3,9 3,13 0,9 -6,22 -14,22l-75 0c-8,0 -14,-13 -14,-22 0,-4 1,-9 3,-13zm-4 -38c2,1 5,2 7,2l0 0 91 0 0 0c2,0 5,-1 7,-2 2,4 4,9 4,13 0,9 -7,22 -15,22l-83 0c-8,0 -15,-13 -15,-22 0,-4 2,-9 4,-13zm-4 -39c2,1 5,2 7,2l0 0 99 0 0 0c2,0 5,-1 7,-2 3,4 4,9 4,13 0,10 -7,22 -15,22l-91 0c-8,0 -15,-12 -15,-22 0,-4 1,-9 4,-13zm-4 -40c2,1 4,2 7,2l0 0 107 0 0 0c3,0 5,-1 7,-2 3,4 4,10 4,14 0,10 -7,22 -15,22l-99 0c-8,0 -16,-12 -16,-22 0,-4 2,-10 5,-14zm-5 -40c3,1 5,2 8,2l0 0 115 0 0 0c3,0 5,-1 8,-2 2,4 4,10 4,14 0,10 -8,23 -16,23l-107 0c-9,0 -16,-13 -16,-23 0,-4 2,-10 4,-14zm-4 -41c2,1 5,2 8,2l0 0 123 0 0 0c3,0 6,-1 8,-2 3,4 5,10 5,15 0,9 -8,23 -17,23l-115 0c-9,0 -17,-14 -17,-23 0,-5 2,-11 5,-15zm-4 -42c2,2 5,2 7,2l0 0 133 0 0 0c2,0 5,0 7,-2 3,5 5,11 5,15 0,10 -8,24 -17,24l-123 0c-9,0 -17,-14 -17,-24 0,-4 2,-10 5,-15zm-5 -42c3,1 5,2 8,2l0 0 141 0 0 0c3,0 5,-1 8,-2 3,5 5,11 5,16 0,10 -8,23 -17,23l-133 0c-9,0 -17,-13 -17,-23 0,-5 2,-11 5,-16zm-4 -43c2,1 5,2 7,2l0 0 150 0 0 0c3,0 6,-1 8,-2 4,5 6,11 6,16 0,10 -9,24 -18,24l-141 0c-9,0 -18,-14 -18,-24 0,-5 2,-11 6,-16zm-5 -44c2,2 5,2 8,2l0 0 159 0 0 0c3,0 5,0 8,-2 3,5 6,11 6,17 0,10 -9,24 -19,24l-150 0c-9,0 -18,-14 -18,-24 0,-6 2,-12 6,-17zm-5 -44c3,1 6,2 8,2l0 0 169 0 0 0c2,0 5,-1 8,-2 3,5 6,11 6,17 0,10 -9,24 -19,24l-159 0c-10,0 -19,-14 -19,-24 0,-6 3,-12 6,-17zm68 633c2,1 4,2 6,2l0 0 37 0 0 0c2,0 4,-1 6,-2 2,3 3,8 3,11 0,8 -6,20 -13,20l-30 0c-6,0 -12,-12 -12,-20 0,-3 1,-8 3,-11zm4 35c1,1 3,1 5,1l0 0 30 0 0 0c3,0 5,0 6,-1 2,3 3,5 3,11 0,5 -5,19 -12,19l-23 0c-7,0 -12,-14 -12,-19 0,-6 1,-8 3,-11zm-436 -342l-224 -301c-38,-50 -15,-186 8,-233l238 479c-7,11 -18,36 -22,55zm913 0c-4,-19 -15,-44 -22,-55l238 -479c23,47 46,183 8,233l-224 301zm35 422l-12 -10 1 -8 -11 0 -64 -49c10,-11 14,-22 15,-34l0 0c0,-3 0,-7 0,-10l16 -5 212 70c-37,28 -113,80 -157,46zm-4 -182c3,-9 6,-21 6,-27l1 -13 -11 6 -10 6c1,-2 2,-3 3,-5 4,-8 7,-16 9,-24l304 -47c-31,43 -78,106 -140,105l-162 -1zm-3 8l234 8c-32,31 -102,98 -153,82l-119 -37c1,0 1,-1 2,-1 5,-4 9,-8 13,-12 10,-11 17,-26 23,-40zm3 -73c2,-13 3,-30 2,-39l326 -156c-16,50 -53,145 -115,156l-213 39zm3 -49l-4 -8 -8 7c2,-5 4,-9 5,-14 3,-13 4,-28 3,-42l327 -273c6,48 -19,181 -87,214l-236 116zm-5 -66c-2,-11 -5,-25 -8,-31l-4 -12 -7 10 -10 16c0,0 0,0 0,0 3,-13 1,-23 1,-35l299 -384c35,45 17,189 -33,232l-238 204zm-977 362c-44,34 -120,-18 -157,-46l212 -70 16 5c0,3 0,7 0,10l0 0c1,12 5,23 15,34l-64 49 -11 0 1 8 -12 10zm7 -174c6,14 13,29 23,40 4,4 8,8 13,12 1,0 1,1 2,1l-119 37c-51,16 -121,-51 -153,-82l234 -8zm-3 -8l-162 1c-62,1 -109,-62 -140,-105l304 47c2,8 5,16 9,24 1,2 2,3 3,5l-10 -6 -11 -6 1 13c0,6 3,18 6,27zm0 -65l-213 -39c-62,-11 -100,-106 -115,-156l326 156c-1,9 0,26 2,39zm-4 -49l-236 -116c-67,-33 -92,-166 -86,-214l327 273c-1,14 0,29 3,42 1,5 3,9 5,14l-8 -7 -5 8zm6 -66l-238 -204c-50,-43 -68,-187 -33,-232l299 384c0,12 -2,22 1,35 0,0 0,0 0,0l-10 -16 -7 -10 -4 12c-3,6 -6,20 -8,31zm237 374c13,-11 30,-19 48,-25 19,-5 39,-9 59,-12 21,-3 42,-5 62,-5l159 0c20,0 41,2 62,5 20,3 40,7 59,12 18,6 35,14 48,25 9,6 11,18 4,27 -7,9 -19,10 -28,4 -12,-10 -27,-17 -44,-22 -16,-5 -34,-8 -53,-9 -18,-2 -37,-3 -55,-3l-146 0c-17,0 -36,1 -54,3 -19,1 -37,4 -53,9 -17,5 -32,12 -44,22 -9,6 -21,5 -28,-4 -7,-9 -5,-21 4,-27zm-37 -183c25,4 52,7 73,0 -6,13 4,30 20,43 -22,17 -35,43 -35,72 0,15 4,30 11,43 -4,2 -8,4 -12,6 -9,4 -17,9 -24,14l0 0 0 0 0 0c-5,4 -9,10 -10,17 0,5 1,10 3,15 -66,28 -221,74 -202,62 30,-22 56,-42 79,-60 11,-4 24,-11 37,-23 10,-9 19,-18 28,-26 8,-9 15,-17 21,-24 7,-8 12,-16 16,-24 4,-7 8,-15 10,-22l0 0c0,0 0,0 0,0l0 0 0 0c0,0 0,0 0,0l0 0c0,0 0,0 0,0l0 0c0,0 0,0 0,0l0 0c1,-2 1,-3 1,-4 1,-1 1,-3 1,-4 1,-6 1,-13 0,-19l0 0c0,-1 0,-2 0,-3 0,-2 -1,-3 -1,-4 -2,-6 -5,-12 -9,-17l0 0 0 0 0 0c-1,-1 -2,-2 -3,-3 -1,-1 -1,-2 -2,-3l0 0c-5,-4 -11,-8 -19,-10l0 0 0 0c-1,0 -2,-1 -3,-1 -2,0 -3,-1 -4,-1 -7,-1 -15,-1 -24,0l0 0c-2,0 -3,1 -5,1 -2,1 -4,1 -5,2 -9,3 -16,8 -22,14l0 0c-1,2 -2,3 -3,4 -1,1 -1,2 -2,3 -4,7 -7,14 -8,21l0 0 0 0c0,2 0,3 0,5 0,1 0,3 0,4 0,8 1,15 4,22l0 0 0 0 0 0c1,2 1,3 2,4 1,2 2,3 2,4 4,6 9,11 15,15 -1,1 -1,1 -2,1 -15,-1 -32,-10 -43,-23 -43,-50 18,-120 115,-101zm219 136l-13 0c-11,0 -21,0 -31,1 -10,1 -21,2 -31,3 -11,2 -21,3 -31,5 -10,3 -20,5 -29,8 -4,1 -7,2 -10,3 -9,-15 -13,-32 -11,-49 2,-23 14,-46 33,-62 5,3 10,6 15,9 27,14 57,18 74,12 0,0 0,0 0,0 0,28 13,53 34,70zm-116 -92c-10,-7 -21,-19 -25,-28 -5,-15 2,-28 12,-23 9,4 15,22 28,30 14,8 23,12 38,13 15,1 25,4 24,14 -1,10 -13,16 -25,14 -16,-2 -43,-14 -52,-20zm-22 -132c10,12 18,54 16,79 -6,-7 -14,-8 -22,1 -7,4 -22,5 -31,6 -13,0 -27,-1 -41,-4 3,-1 6,-2 9,-3 14,-5 35,-16 49,-35 11,-13 15,-27 20,-44zm-146 273c-20,18 -36,26 -53,28 -13,0 -24,-1 -34,-6 -9,-5 -17,-11 -24,-18 -8,-10 -13,-20 -14,-28l0 -3 3 0c20,-1 41,-3 63,-8 20,-5 44,-14 64,-27 -11,-6 -19,-15 -23,-25 -4,-9 -5,-18 -4,-27 5,-33 37,-50 68,-40 9,3 15,7 21,14 12,15 14,33 6,51 -6,14 -11,23 -23,39 -12,15 -29,32 -50,50zm417 -49c21,-17 34,-42 34,-70 0,0 0,0 0,0 17,6 47,2 74,-12 5,-3 10,-6 15,-9 19,16 31,39 33,62 2,17 -2,34 -11,49 -3,-1 -6,-2 -10,-3 -9,-3 -19,-5 -29,-8 -10,-2 -20,-3 -31,-5l0 0c-10,-1 -21,-2 -31,-3 -10,-1 -21,-1 -31,-1l-13 0zm138 -224c5,17 9,31 20,44 14,19 35,30 49,35 3,1 6,2 9,3 -14,3 -28,4 -41,4 -10,-1 -24,-2 -31,-6 -8,-9 -16,-8 -22,-1 -2,-25 6,-67 16,-79zm145 273c-20,-18 -37,-35 -49,-50 -12,-16 -17,-25 -23,-39 -8,-18 -6,-36 6,-51 6,-7 12,-11 21,-14 31,-10 63,7 68,40 1,9 0,18 -4,27 -4,10 -12,19 -23,25 20,13 44,22 64,27 21,5 42,7 63,8l3 0 0 3c-1,8 -6,18 -14,28 -7,7 -15,13 -24,18 -10,5 -21,6 -34,6 -17,-2 -33,-10 -54,-28zm-64 -185c96,-19 158,51 115,101 -11,13 -28,22 -43,23 -1,0 -1,0 -2,-1 6,-4 11,-9 15,-15 0,-1 1,-2 2,-4 1,-1 1,-2 2,-4l0 0 0 0 0 0c3,-7 4,-14 4,-22 0,-1 0,-3 0,-4 0,-2 0,-3 0,-5l0 0 0 0c-1,-7 -4,-14 -8,-21 -1,-1 -1,-2 -2,-3 -1,-1 -2,-2 -3,-4l0 0c-6,-6 -13,-11 -22,-14 -1,-1 -3,-1 -5,-2 -2,0 -4,-1 -5,-1l0 0c-9,-1 -17,-1 -24,0 -1,0 -2,1 -4,1 -1,0 -2,1 -3,1l-1 0 0 0c-7,2 -13,6 -18,10l0 0c-1,1 -2,2 -2,3 -1,1 -2,2 -3,3l0 0 0 0 0 0c-4,5 -7,11 -9,17 0,1 -1,2 -1,4 0,1 0,2 -1,3l0 0c0,6 0,13 1,19 0,1 0,3 1,4 0,1 0,2 1,4l0 0c0,0 0,0 0,0l0 0c0,0 0,0 0,0l0 0c0,0 0,0 0,0l0 0 0 0c0,0 0,0 0,0l0 0c2,7 5,15 10,22 4,8 9,16 16,24 6,7 13,15 21,24 8,8 18,17 28,26 13,12 25,19 37,23 23,18 49,38 79,60 19,12 -136,-34 -202,-62 2,-5 3,-10 2,-15 0,-7 -4,-13 -9,-17l0 0 0 0c-7,-5 -15,-10 -24,-14 -4,-2 -8,-4 -12,-6 7,-13 11,-28 11,-43 0,-29 -14,-55 -35,-72 16,-13 26,-30 20,-43 20,7 48,4 73,0zm-103 44c-9,6 -36,18 -52,20 -12,2 -24,-4 -25,-14 -1,-10 8,-13 23,-14 15,-1 25,-5 39,-13 13,-8 19,-26 28,-30 9,-5 17,8 12,23 -4,9 -15,21 -25,28zm229 -324c0,-2 0,-4 0,-5 -1,-18 -5,-36 -10,-50l170 -567c38,54 83,123 51,190l-211 432zm-71 273c3,-1 5,-2 8,-3 39,-15 51,-77 45,-129 19,52 33,119 -3,152 -13,-10 -30,-17 -50,-20zm21 -222c15,69 8,152 -43,180 -23,13 -49,10 -74,-2 33,-5 47,-11 67,-30 38,-37 47,-105 50,-148zm11 33c30,76 17,154 -25,179 -16,10 -41,12 -63,5 -18,-5 -40,-18 -56,-38 15,6 28,14 39,16 36,5 55,-5 73,-21 27,-24 42,-87 32,-141zm38 192c8,-17 10,-38 8,-60l64 -57c3,23 -1,79 -32,95l-40 22zm9 57c-2,-8 -6,-15 -11,-22 -4,-5 -8,-10 -13,-14 3,-3 5,-6 8,-9l84 -47c-3,23 -22,80 -57,89l-11 3zm-3 -127c0,-7 -2,-13 -3,-20 -2,-8 -4,-16 -7,-24 0,-2 -1,-3 -1,-4l66 -98c9,21 17,82 -9,105l-46 41zm-15 -59c-4,-10 -8,-19 -10,-21 -2,-11 -5,-21 -8,-32l46 -112c14,19 34,71 14,102l-42 63zm-22 -63c-3,-6 -6,-12 -9,-17 -2,-11 -4,-18 -7,-29l14 -125c7,7 17,27 22,50 6,23 8,49 0,68l-20 53zm-28 -13c-13,120 -67,146 -124,153 30,-28 47,-58 58,-103l129 -558 -63 508zm107 -791c36,36 94,122 76,182l-137 470c-3,-6 -8,-16 -11,-18l-8 -10 42 -340 4 -61 34 -223zm-878 1053l-12 -3c-34,-9 -53,-66 -56,-89l84 47c3,3 5,6 8,9 -5,4 -10,9 -13,14 -5,7 -9,14 -11,22zm79 -60c-20,3 -37,10 -50,20 -36,-33 -22,-100 -3,-152 -6,52 6,114 45,129 2,1 5,2 8,3zm-70 3l-40 -22c-31,-16 -35,-72 -32,-95l64 57c-2,22 0,43 8,60zm-7 -70l-45 -41c-26,-23 -18,-84 -9,-105l66 98c-1,1 -1,2 -1,4 -3,8 -5,16 -7,24 -1,7 -3,13 -4,20zm16 -59l-42 -63c-20,-31 0,-83 14,-102l46 112c-3,11 -6,21 -8,32 -2,2 -6,11 -10,21zm29 -63c-10,54 5,117 32,141 18,16 37,26 73,21 11,-2 24,-10 39,-16 -17,20 -38,33 -56,38 -22,7 -47,5 -63,-5 -42,-25 -55,-103 -25,-179zm11 -33c3,43 12,111 50,148 20,19 34,25 67,30 -25,12 -51,15 -74,2 -51,-28 -58,-111 -43,-180zm-18 33l-20 -53c-16,-38 7,-104 22,-118l14 125c-3,11 -5,18 -7,29 -3,5 -6,11 -9,17zm-32 -84l-211 -432c-32,-67 13,-136 51,-190l170 567c-5,14 -9,32 -10,50 0,1 0,3 0,5zm60 71l-63 -508 129 558c11,45 28,75 58,103 -57,-7 -111,-33 -124,-153z"/>
   <path class="fil2" d="M2253 831l-427 1314 -1381 0 -427 -1314 1118 -812 1117 812zm-1260 597c4,24 15,42 36,50 16,7 38,7 67,1 1,2 2,3 3,4 -1,2 -2,5 -3,7 -32,7 -57,6 -74,-1 -23,-10 -34,-30 -39,-57l-125 -827c6,2 7,10 8,15 1,-2 -1,-14 3,-16l124 824zm285 0l2 -15c2,1 5,2 8,2 1,0 1,0 2,0l-3 17c-4,27 -15,47 -38,57 -17,7 -42,8 -74,1 -1,-2 -2,-5 -3,-7 1,-1 2,-2 3,-4 29,6 51,6 67,-1 21,-8 32,-26 36,-50zm-22 -85l11 11 14 -7 12 10 14 -7 12 11 14 -7 11 11 8 -4c1,3 2,3 1,9 -1,6 -9,16 -20,21 -9,14 -28,23 -48,20 -20,-3 -36,-17 -40,-33 -9,-8 -14,-20 -13,-26 1,-6 1,-6 3,-8l6 6 15 -7zm122 -750l8 8 11 -5 8 8 11 -5 9 8 10 -5 9 8 6 -3c0,2 1,2 0,6 -1,5 -7,13 -15,16 -4,7 -12,12 -21,14 -1,0 -1,0 -2,-1 -3,-3 -7,-4 -11,-5l0 0c-6,-1 -11,0 -15,2 -8,-4 -14,-12 -16,-20 -7,-5 -10,-15 -10,-19 1,-5 1,-4 2,-6l5 4 11 -5zm-12 72c3,3 6,6 9,9 3,-2 7,-4 11,-6 3,3 6,6 9,9 3,-2 7,-4 11,-6 3,3 6,6 8,8 4,-1 8,-3 11,-5 3,3 6,6 9,8 2,-1 4,-2 6,-2 1,2 1,1 1,6 -1,5 -7,13 -16,17 -4,7 -12,12 -22,14 0,0 -1,-1 -1,-1l0 0c-4,-3 -8,-5 -12,-6l0 0c-6,0 -11,1 -16,3 -8,-5 -14,-12 -16,-21 -8,-6 -11,-15 -10,-20 0,-4 1,-4 2,-6 2,2 3,3 5,5 3,-2 7,-4 11,-6zm-12 75c3,2 6,5 9,8 4,-2 7,-3 11,-5 3,3 6,5 9,8 4,-2 8,-3 12,-5 3,3 6,6 9,8 4,-1 8,-3 11,-5 4,3 7,6 10,8 2,-1 4,-2 6,-3 0,3 1,2 0,7 0,5 -7,14 -16,17 -4,8 -13,13 -23,16 0,-1 -1,-1 -1,-2 -4,-3 -8,-5 -13,-5l0 0c-5,-1 -11,0 -16,2 -8,-5 -15,-13 -17,-21 -7,-6 -11,-16 -10,-21 0,-5 1,-4 2,-7 2,2 3,4 5,5 4,-2 8,-4 12,-5zm-13 77c3,2 6,5 10,8 3,-1 7,-3 11,-5 3,3 7,6 10,9 4,-2 8,-4 12,-6 3,3 6,6 9,9 4,-2 8,-4 12,-6 3,3 6,6 10,9 2,-1 4,-2 6,-3 1,2 1,2 0,7 0,5 -7,14 -16,18 -5,8 -14,13 -24,15 -1,0 -1,-1 -2,-1 -3,-3 -8,-5 -13,-6l0 0c-5,0 -11,0 -16,3 -9,-5 -16,-13 -18,-22 -8,-7 -11,-17 -11,-22 1,-5 2,-4 3,-7 2,2 3,4 5,5 4,-2 8,-4 12,-5zm-13 79c3,3 7,6 10,9 4,-2 8,-4 12,-6 3,4 7,7 10,10 4,-2 8,-4 12,-6 3,3 7,6 10,9 4,-2 8,-4 12,-6 3,3 7,6 10,9 2,-1 5,-2 7,-3 0,3 1,2 0,7 -1,5 -7,15 -17,19 -5,8 -14,14 -25,16 -1,-1 -2,-1 -3,-2 -1,-1 -2,-1 -3,-2 -2,-1 -6,-3 -9,-3l0 0c-5,-1 -11,0 -16,2 -10,-5 -17,-13 -19,-23 -8,-6 -12,-17 -11,-22 1,-5 1,-5 2,-7 2,2 4,3 6,5 4,-2 8,-4 12,-6zm-14 83c4,3 7,6 11,9 4,-2 8,-4 12,-6 4,3 7,6 11,10 4,-2 8,-4 12,-7 4,4 7,7 10,10 5,-2 9,-4 13,-6 3,3 7,6 10,9 2,-1 5,-2 7,-3 1,3 1,2 0,8 0,5 -7,14 -17,19 -6,8 -15,15 -27,17 0,-1 -1,-2 -2,-2 -1,-1 -2,-1 -3,-2l0 0c-3,-2 -6,-3 -9,-3l-1 0c-5,-1 -11,0 -16,2 -10,-5 -17,-14 -20,-24 -8,-7 -12,-18 -11,-23 0,-6 1,-5 2,-7 2,1 4,3 6,5 4,-2 8,-4 12,-6zm-13 85c3,4 7,7 10,10 4,-2 9,-4 13,-6 4,3 7,6 11,10 4,-2 8,-4 13,-7 3,4 7,7 10,10 5,-2 9,-4 13,-6 4,3 7,6 11,10 2,-1 5,-3 7,-4 1,3 1,3 0,8 -1,6 -8,15 -18,20 -6,9 -16,15 -28,17 -1,0 -1,-1 -2,-1 -1,-1 -2,-1 -3,-2 -3,-2 -6,-3 -10,-3l0 0c-5,-1 -10,0 -16,2 -11,-6 -18,-15 -21,-25 -9,-7 -13,-19 -12,-24 1,-6 1,-5 3,-8 2,2 4,4 6,6 4,-2 8,-5 13,-7zm-15 89c4,4 7,7 11,11 4,-3 9,-5 13,-7 4,3 8,7 11,10 5,-2 9,-4 14,-6 3,3 7,6 11,10 4,-2 8,-5 13,-7 4,4 7,7 11,10 2,-1 5,-2 7,-3 1,3 1,2 1,8 -1,6 -9,16 -19,20 -6,10 -17,17 -30,19 -1,-1 -1,-1 -1,-1 -1,-1 -2,-2 -3,-2l0 0c-3,-2 -7,-3 -10,-4l0 0c-6,0 -11,0 -16,2 -11,-5 -20,-15 -23,-26 -9,-8 -13,-19 -12,-25 1,-6 1,-5 3,-8 2,2 4,4 6,6 4,-2 9,-4 13,-7zm-15 93c4,4 8,7 11,11 5,-3 10,-5 14,-7 4,3 8,7 11,10 5,-2 10,-4 14,-6 4,3 8,7 11,10 5,-2 10,-4 14,-7 4,4 8,7 11,11 3,-1 5,-3 8,-4 1,3 1,3 0,8 0,6 -8,17 -19,21 -6,11 -18,18 -32,19 -1,0 -2,-1 -3,-2 -4,-1 -7,-2 -11,-3l0 0c-5,-1 -9,0 -14,1 -13,-5 -22,-16 -25,-28 -9,-7 -14,-19 -13,-25 1,-6 2,-5 3,-8 2,2 4,4 6,6 5,-2 9,-5 14,-7zm279 475c35,26 59,44 81,56 12,6 15,16 2,25 -16,10 -39,13 -54,8 -4,-1 -7,-3 -9,-5 2,3 6,6 11,8 11,4 27,3 42,-2 -22,19 -42,59 -44,85 0,2 0,5 0,7 5,9 6,17 2,22 -5,5 -15,5 -25,0 -1,-1 -3,-2 -5,-4 -2,-1 -4,-2 -6,-4 0,0 0,0 -1,-1 -11,-9 -23,-22 -31,-27 -41,-24 -85,-48 -156,-57 -63,-8 -142,-7 -222,-7 -79,0 -159,-1 -221,7 -71,9 -115,33 -156,57 -8,5 -21,18 -31,27 -1,1 -1,1 -2,1 -1,2 -3,3 -5,4 -2,2 -4,3 -5,4 -10,5 -20,5 -25,0 -4,-5 -3,-13 2,-22 0,-2 0,-5 -1,-7 -1,-26 -21,-66 -43,-85 15,5 31,6 42,2 5,-2 9,-5 10,-8 -2,2 -4,4 -8,5 -15,5 -38,2 -55,-8 -12,-9 -9,-19 3,-25 22,-12 46,-30 81,-56 4,0 7,1 11,0 1,0 1,0 2,0 -42,32 -63,48 -81,60 15,3 58,-7 70,-10 47,-13 118,-37 157,-53 1,0 2,1 3,2 1,1 3,2 4,3 9,4 19,3 27,-3 6,-4 13,-8 20,-11 7,-4 15,-7 22,-9 9,-3 17,-5 26,-6 8,-2 17,-3 26,-4l0 0c0,0 0,0 0,0l0 0c0,0 -1,0 0,0l0 0c0,0 0,0 0,0l0 0c0,0 0,0 0,0l0 0c2,0 4,0 8,0 3,-1 5,-1 8,-1 13,-1 26,-1 38,-1l146 0 1 0c8,0 17,0 27,0 1,0 2,0 4,0 8,1 16,1 23,2 9,1 18,2 26,4 9,1 17,3 25,6 8,2 16,5 23,9 7,3 14,7 20,11l0 0 0 0 0 0c1,2 3,3 5,3 2,1 3,2 5,2 9,2 18,-1 24,-7 39,16 110,40 157,53 12,3 55,13 70,10 -18,-12 -39,-28 -81,-60 1,0 1,0 2,0 4,1 7,0 11,0zm-128 -1227c10,5 15,22 13,41 -3,15 -9,27 -18,33 -4,-3 -8,-4 -13,-2 -6,-8 -9,-22 -7,-36 3,-19 13,-34 25,-36zm-149 827c8,-8 17,-12 27,-10 9,1 17,8 23,17 13,8 23,19 27,31l-5 3 -12 -11 -14 7 -11 -11 -15 7 -11 -11 -14 7 -12 -10 -14 7 -5 -4c8,-11 21,-19 36,-22zm118 -744c5,-6 12,-9 20,-7 7,1 13,5 17,13 9,5 17,13 20,23l-4 1 -9 -8 -10 6 -9 -8 -10 5 -9 -8 -10 5 -9 -8 -11 5 -3 -3c6,-8 16,-14 27,-16zm-12 72c6,-6 14,-9 21,-8 7,1 14,6 18,13 10,6 17,15 21,24 -2,1 -3,2 -4,2 -3,-3 -6,-5 -9,-8 -4,2 -8,3 -11,5 -3,-3 -6,-5 -9,-8 -4,2 -7,3 -11,5 -3,-3 -6,-5 -9,-8 -4,2 -7,3 -11,5 -3,-2 -6,-5 -9,-8 -4,2 -7,4 -11,5 -1,-1 -2,-2 -3,-3 6,-8 16,-14 27,-16zm-12 73c7,-6 14,-9 22,-8 8,2 14,7 18,14 11,6 19,15 22,25 -1,1 -3,2 -4,2 -3,-3 -6,-6 -9,-8 -4,1 -8,3 -12,5 -3,-3 -6,-6 -9,-8 -4,1 -7,3 -11,5 -3,-3 -6,-6 -9,-9 -4,2 -8,4 -12,6 -3,-3 -6,-6 -9,-9 -4,2 -8,4 -11,6 -2,-1 -3,-2 -4,-3 6,-9 17,-15 28,-18zm-12 77c7,-6 15,-10 23,-9 8,2 14,7 18,15 11,6 20,15 23,26 -1,0 -3,1 -4,2 -3,-3 -6,-6 -10,-9 -4,2 -8,4 -11,6 -4,-3 -7,-6 -10,-9 -4,2 -8,4 -12,5 -3,-3 -6,-6 -9,-9 -4,2 -8,4 -12,6 -3,-3 -7,-6 -10,-9 -4,2 -8,4 -12,6 -1,-1 -2,-2 -3,-3 6,-9 17,-16 29,-18zm-12 79c6,-7 15,-10 23,-9 8,1 15,7 19,15 12,7 20,16 24,27 -2,1 -3,1 -5,2 -3,-3 -6,-6 -9,-9 -5,2 -9,4 -13,6 -3,-3 -6,-6 -10,-10 -4,2 -8,4 -12,6 -3,-3 -6,-6 -10,-9 -4,2 -8,4 -12,6 -3,-3 -6,-6 -10,-9 -4,2 -8,4 -12,6 -1,-1 -2,-2 -4,-4 7,-9 18,-15 31,-18zm-13 82c7,-7 15,-10 24,-9 8,1 15,7 20,15 12,7 20,17 24,28 -1,1 -3,1 -4,2 -4,-3 -7,-6 -11,-9 -4,2 -8,4 -12,6 -4,-3 -7,-7 -11,-10 -4,2 -8,4 -12,6 -4,-3 -7,-6 -10,-9 -5,2 -9,4 -13,6 -3,-3 -7,-6 -10,-10 -4,2 -9,4 -13,6 -1,-1 -2,-2 -4,-3 7,-10 19,-16 32,-19zm-14 85c7,-7 16,-11 25,-9 9,1 16,7 21,16 12,6 21,16 25,28 -2,1 -3,2 -5,2 -3,-3 -7,-6 -10,-10 -5,3 -9,5 -13,7 -4,-3 -7,-7 -11,-10 -4,2 -9,4 -13,6 -4,-3 -7,-6 -11,-10 -4,3 -8,5 -13,7 -3,-4 -7,-7 -10,-10 -4,2 -9,4 -13,6 -1,-1 -3,-2 -4,-3 7,-10 19,-17 32,-20zm-14 88c8,-7 17,-11 26,-9 9,1 16,7 21,16 13,7 22,18 26,29 -1,1 -3,2 -5,3 -3,-4 -7,-7 -11,-10 -4,2 -9,4 -13,6 -4,-3 -7,-7 -11,-10 -4,2 -9,4 -13,7 -4,-4 -8,-7 -11,-11 -5,3 -9,5 -14,7 -3,-3 -7,-7 -11,-10 -4,2 -8,4 -13,6 -1,-1 -3,-2 -4,-3 7,-11 19,-18 33,-21zm-14 92c7,-7 17,-11 26,-10 9,2 17,8 22,17 13,7 23,18 27,30 -2,1 -3,2 -5,3 -4,-4 -8,-7 -11,-11 -5,3 -10,5 -14,7 -4,-3 -8,-7 -11,-10 -5,2 -10,4 -14,6 -4,-3 -8,-7 -11,-10 -5,2 -10,4 -14,7 -4,-4 -8,-7 -11,-11 -5,2 -10,5 -14,7 -2,-1 -3,-3 -4,-4 7,-10 19,-18 34,-21zm-543 629l-25 -45 9 -5 36 20 -17 -31 8 -4 25 45 -9 5 -35 -19 17 29 -9 5zm713 -20l2 -4c2,1 4,2 6,2 2,1 4,1 5,1 1,0 1,-1 2,-2 0,0 0,-1 -1,-2 0,-1 -1,-2 -3,-2 -1,-1 -3,-1 -4,-1l2 -3c1,0 2,0 3,0 0,0 0,0 0,0 -5,-2 -9,-6 -11,-11 -2,-6 -2,-13 1,-20 3,-8 7,-14 13,-17 6,-3 12,-3 19,-1 6,2 10,6 13,11 1,3 2,6 1,11l-10 -1c0,-3 0,-6 -2,-8 -1,-2 -3,-4 -6,-4 -3,-2 -7,-2 -10,0 -3,2 -6,6 -8,12 -2,6 -3,11 -1,14 1,4 3,6 7,7 3,1 5,1 8,0 2,-1 4,-3 7,-6l8 6c-3,5 -7,8 -12,10 -3,1 -7,1 -11,0 0,0 0,0 0,0 1,0 2,1 2,2 1,2 2,4 1,6 -1,2 -2,3 -4,3 -3,1 -6,1 -10,0 -3,-1 -5,-2 -7,-3zm-622 -20l-11 4 -8 -10 -20 8 0 12 -10 4 1 -56 10 -4 38 42zm-25 -13l-14 -15 0 20 14 -5zm49 -13l-2 -8 22 -6 5 20c-2,3 -4,5 -8,8 -3,3 -7,5 -12,6 -5,1 -10,1 -14,0 -5,-1 -8,-3 -12,-7 -3,-4 -5,-8 -6,-13 -2,-5 -2,-10 -1,-15 2,-4 4,-8 8,-12 2,-2 6,-4 11,-5 6,-2 11,-2 16,0 4,1 7,4 9,9l-9 4c-2,-2 -3,-3 -6,-4 -2,-1 -5,-1 -8,-1 -4,2 -7,4 -9,7 -2,4 -2,9 -1,14 2,6 4,10 8,12 3,3 7,3 11,2 3,0 5,-1 7,-3 1,-1 3,-3 4,-4l-1 -7 -12 3zm83 3l-11 2 -7 -11 -21 4 -2 13 -10 2 10 -55 10 -2 31 47zm-23 -17l-11 -17 -3 20 14 -3zm29 17l-8 -52 22 -3c6,-1 10,-1 13,-1 2,1 4,2 6,5 2,2 3,4 4,7 0,4 0,8 -2,10 -2,3 -5,5 -10,7 3,1 5,2 6,3 2,2 4,4 7,8l8 9 -12 2 -9 -10c-4,-4 -6,-6 -7,-7 -1,-1 -2,-2 -3,-2 -2,0 -3,0 -6,0l-2 0 3 22 -10 2zm6 -32l8 -1c5,-1 8,-1 9,-2 1,0 2,-1 3,-2 0,-2 0,-3 0,-4 0,-2 -1,-3 -2,-4 -1,-1 -2,-2 -4,-2 -1,0 -4,0 -8,1l-8 1 2 13zm92 21l-11 1 -6 -11 -20 2 -4 12 -11 1 16 -54 11 -1 25 50zm-21 -19l-9 -18 -5 20 14 -2zm43 -34l19 -1c4,0 8,0 10,1 3,0 6,2 8,4 2,2 4,5 5,8 2,4 2,8 3,13 0,4 -1,8 -2,11 -1,4 -3,7 -5,9 -2,2 -4,3 -7,5 -2,0 -6,1 -9,1l-20 1 -2 -52zm11 8l1 35 8 -1c3,0 5,0 6,0 2,-1 3,-2 4,-3 1,-1 2,-3 3,-5 1,-2 1,-5 1,-9 0,-5 -1,-8 -2,-10 -1,-2 -2,-4 -3,-5 -1,-1 -3,-2 -5,-2 -1,0 -4,0 -9,0l-4 0zm90 43l-11 -1 -4 -12 -21 0 -5 12 -11 0 21 -52 11 0 20 53zm-19 -21l-6 -20 -8 19 14 1zm25 21l2 -53 10 1 20 35 2 -34 9 0 -2 52 -10 0 -20 -35 -1 34 -10 0zm99 5l-11 -1 -3 -12 -21 -2 -6 12 -11 -1 25 -50 11 1 16 53zm-17 -22l-6 -20 -8 19 14 1zm40 24l7 -51 22 3c6,1 10,2 12,3 2,1 4,3 5,6 2,2 2,5 2,8 -1,4 -3,7 -5,9 -3,3 -7,4 -11,4 2,1 4,3 5,5 1,2 3,5 5,9l4 11 -12 -2 -6 -12c-2,-4 -4,-7 -4,-8 -1,-2 -2,-2 -3,-3 -1,-1 -3,-1 -5,-1l-2 -1 -4 22 -10 -2zm15 -28l7 1c5,1 9,1 10,1 1,0 2,-1 3,-2 1,-1 1,-2 2,-4 0,-1 0,-3 -1,-4 -1,-1 -2,-2 -4,-3 -1,0 -3,0 -7,-1l-8 -1 -2 13zm84 45l-12 -2 -2 -13 -20 -4 -7 11 -11 -3 31 -47 11 3 10 55zm-15 -24l-3 -20 -11 17 14 3zm21 25l13 -51 10 3 -6 23 27 -17 13 3 -24 15 12 36 -13 -3 -8 -28 -10 6 -4 16 -10 -3zm141 54l-10 -6 2 -12 -19 -11 -9 9 -10 -6 43 -35 10 5 -7 56zm-7 -28l3 -20 -15 13 12 7zm-463 -522c0,16 -11,39 -30,59 -17,19 -37,31 -52,34l-1 0 -1 -10c3,-15 13,-33 28,-49 19,-21 41,-33 56,-34zm-289 -709c13,0 31,8 48,23 16,14 26,30 28,42l5 4 0 4 -8 -5c-12,-1 -29,-10 -44,-23 -17,-15 -28,-32 -29,-45zm155 1c1,11 -5,29 -17,46 -11,16 -24,27 -35,30l-5 6 -1 -3 3 -6c0,-11 6,-27 16,-43 12,-17 27,-28 39,-30zm17 101c2,12 -5,30 -17,48 -12,16 -26,27 -37,30 -2,2 -3,4 -5,6l0 -4c0,-2 1,-3 2,-4 0,-12 6,-29 18,-45 12,-18 28,-29 39,-31zm-160 2c13,-1 32,7 50,22 16,13 27,29 30,42 1,1 3,2 4,4l1 4c-3,-2 -6,-4 -8,-5 -13,-1 -30,-9 -46,-22 -18,-15 -30,-33 -31,-45zm12 103c13,-1 33,7 51,21 18,14 29,30 33,43 1,1 2,2 4,3l0 5c-2,-2 -5,-4 -8,-5 -12,0 -31,-8 -48,-21 -18,-15 -31,-33 -32,-46zm168 -4c1,13 -6,32 -20,50 -13,17 -28,28 -39,31 -2,1 -3,3 -4,5l-1 -5c1,-1 1,-2 2,-3 0,-13 7,-30 20,-46 13,-18 30,-30 42,-32zm19 101c1,13 -7,34 -21,52 -14,17 -30,29 -42,31 -1,2 -3,3 -4,4l0 -5c0,-1 0,-1 1,-2 0,-13 8,-31 21,-48 15,-18 33,-30 45,-32zm-176 7c14,-2 34,5 54,20 18,13 31,30 34,43 2,1 3,2 4,3l1 4c-3,-1 -5,-3 -8,-4 -13,0 -32,-7 -50,-21 -20,-14 -33,-32 -35,-45zm12 103c14,-2 35,5 56,20 19,13 32,29 36,43 1,1 2,2 4,3l0 4c-2,-1 -5,-3 -7,-4 -14,1 -33,-7 -52,-20 -21,-14 -35,-32 -37,-46zm184 -9c1,14 -8,35 -24,54 -15,18 -32,29 -45,32 0,1 -1,2 -2,3l-1 -6c0,0 0,0 0,0 1,-14 10,-33 24,-50 16,-19 34,-31 48,-33zm19 102c1,14 -9,36 -26,55 -15,18 -33,30 -47,33 0,0 -1,1 -2,2l-1 -7c2,-14 11,-33 26,-51 17,-19 36,-31 50,-32zm-191 11c14,-3 36,4 57,18 20,14 34,30 38,43 2,1 3,2 4,3l1 5c-3,-1 -5,-3 -8,-4 -14,1 -34,-6 -53,-19 -22,-14 -37,-33 -39,-46zm11 103c15,-3 38,4 60,18 21,13 35,30 40,43 1,1 3,2 4,3l0 5c-2,-1 -4,-3 -7,-4 -14,1 -35,-5 -56,-18 -22,-14 -37,-33 -41,-47zm200 -13c0,15 -10,37 -28,57 -17,19 -36,31 -50,33 0,1 -1,1 -1,1l-1 -9c2,-14 12,-32 27,-49 18,-20 38,-32 53,-33zm-188 117c14,-4 38,2 62,17 21,13 37,30 42,43l3 3 1 5 -7 -4c-15,2 -37,-4 -58,-17 -23,-14 -39,-33 -43,-47zm-18 -836c11,9 20,29 23,54 3,21 1,42 -5,53 -3,5 -2,12 -2,18 -2,-7 -2,-12 -7,-17 -8,-8 -16,-27 -18,-50 -2,-24 1,-47 9,-58zm258 1036c2,1 4,1 6,1l0 0 45 0 0 0c2,0 4,0 6,-1 2,3 3,7 3,11 0,8 -6,20 -13,20l-37 0c-7,0 -13,-12 -13,-20 0,-4 1,-8 3,-11zm-4 -36c2,1 4,2 6,2l0 0 52 0 0 0c3,0 5,-1 7,-2 2,3 3,8 3,11 0,9 -6,21 -13,21l-45 0c-7,0 -13,-12 -13,-21 0,-3 1,-8 3,-11zm-4 -37c2,2 4,2 7,2l0 0 59 0 0 0c3,0 5,0 7,-2 2,4 3,9 3,12 0,9 -6,21 -14,21l-52 0c-7,0 -13,-12 -13,-21 0,-3 1,-8 3,-12zm-4 -36c2,1 5,1 7,1l0 0 67 0 0 0c2,0 5,0 7,-1 2,3 3,8 3,12 0,9 -6,21 -14,21l-59 0c-8,0 -14,-12 -14,-21 0,-4 1,-9 3,-12zm-4 -38c2,1 5,2 7,2l0 0 75 0 0 0c2,0 5,-1 7,-2 2,4 3,9 3,13 0,9 -6,21 -14,21l-67 0c-8,0 -14,-12 -14,-21 0,-4 1,-9 3,-13zm-4 -38c2,2 5,2 7,2l0 0 83 0 0 0c2,0 5,0 7,-2 2,4 3,9 3,13 0,9 -6,22 -14,22l-75 0c-8,0 -14,-13 -14,-22 0,-4 1,-9 3,-13zm-4 -38c2,1 5,2 7,2l0 0 91 0 0 0c2,0 5,-1 7,-2 2,4 4,9 4,13 0,9 -7,22 -15,22l-83 0c-8,0 -15,-13 -15,-22 0,-4 2,-9 4,-13zm-4 -39c2,1 5,2 7,2l0 0 99 0 0 0c2,0 5,-1 7,-2 3,4 4,9 4,13 0,10 -7,22 -15,22l-91 0c-8,0 -15,-12 -15,-22 0,-4 1,-9 4,-13zm-4 -40c2,1 4,2 7,2l0 0 107 0 0 0c3,0 5,-1 7,-2 3,4 4,10 4,14 0,10 -7,22 -15,22l-99 0c-8,0 -16,-12 -16,-22 0,-4 2,-10 5,-14zm-5 -40c3,1 5,2 8,2l0 0 115 0 0 0c3,0 5,-1 8,-2 2,4 4,10 4,14 0,10 -8,23 -16,23l-107 0c-9,0 -16,-13 -16,-23 0,-4 2,-10 4,-14zm-4 -41c2,1 5,2 8,2l0 0 123 0 0 0c3,0 6,-1 8,-2 3,4 5,10 5,15 0,9 -8,23 -17,23l-115 0c-9,0 -17,-14 -17,-23 0,-5 2,-11 5,-15zm-4 -42c2,2 5,2 7,2l0 0 133 0 0 0c2,0 5,0 7,-2 3,5 5,11 5,15 0,10 -8,24 -17,24l-123 0c-9,0 -17,-14 -17,-24 0,-4 2,-10 5,-15zm-5 -42c3,1 5,2 8,2l0 0 141 0 0 0c3,0 5,-1 8,-2 3,5 5,11 5,16 0,10 -8,23 -17,23l-133 0c-9,0 -17,-13 -17,-23 0,-5 2,-11 5,-16zm-4 -43c2,1 5,2 7,2l0 0 150 0 0 0c3,0 6,-1 8,-2 4,5 6,11 6,16 0,10 -9,24 -18,24l-141 0c-9,0 -18,-14 -18,-24 0,-5 2,-11 6,-16zm-5 -44c2,2 5,2 8,2l0 0 159 0 0 0c3,0 5,0 8,-2 3,5 6,11 6,17 0,10 -9,24 -19,24l-150 0c-9,0 -18,-14 -18,-24 0,-6 2,-12 6,-17zm-5 -44c3,1 6,2 8,2l0 0 169 0 0 0c2,0 5,-1 8,-2 3,5 6,11 6,17 0,10 -9,24 -19,24l-159 0c-10,0 -19,-14 -19,-24 0,-6 3,-12 6,-17zm68 633c2,1 4,2 6,2l0 0 37 0 0 0c2,0 4,-1 6,-2 2,3 3,8 3,11 0,8 -6,20 -13,20l-30 0c-6,0 -12,-12 -12,-20 0,-3 1,-8 3,-11zm4 35c1,1 3,1 5,1l0 0 30 0 0 0c3,0 5,0 6,-1 2,3 3,5 3,11 0,5 -5,19 -12,19l-23 0c-7,0 -12,-14 -12,-19 0,-6 1,-8 3,-11zm119 -861c10,0 21,14 21,26 0,11 -11,25 -21,25l-197 0c-11,0 -21,-14 -21,-25 0,-12 10,-26 21,-26l197 0zm-205 55c2,1 5,2 8,2l0 0 197 0 0 0c3,0 5,-1 8,-2 4,5 7,12 7,18 0,11 -10,25 -20,25 -62,0 -125,0 -187,0 -10,0 -20,-14 -20,-25 0,-6 3,-13 7,-18zm5 47c2,1 5,2 8,2l0 0 187 0 0 0c3,0 6,-1 8,-2 4,5 7,12 7,17 0,11 -10,25 -20,25 -59,0 -118,0 -177,0 -11,0 -20,-14 -20,-25 0,-5 3,-12 7,-17zm5 46c2,1 5,2 8,2l0 0 177 0 0 0c3,0 6,-1 8,-2 4,5 7,11 7,17 0,11 -9,25 -19,25 -56,0 -113,0 -169,0 -10,0 -19,-14 -19,-25 0,-6 3,-12 7,-17zm96 -450c8,0 15,14 15,32 0,18 -7,32 -15,32 -7,0 -14,-14 -14,-32 0,-18 7,-32 14,-32zm-31 143l25 23 -50 0 25 -23zm0 115l-25 -23 50 0 -25 23zm63 0l-25 -23 49 0 -24 23zm62 0l-25 -23 46 0 0 0c1,0 3,0 4,0l-25 23zm-187 0l-25 -23c1,0 3,0 4,0l0 0 46 0 -25 23zm125 -115l24 23 -49 0 25 -23zm62 0l25 23c-1,0 -3,0 -4,0l0 0 -46 0 25 -23zm-187 0l25 23 -46 0 0 0c-1,0 -3,0 -4,0l25 -23zm93 -75c67,0 121,42 122,94l-25 -23 -3 -3 -4 3 -27 26 -28 -26 -3 -3 -4 3 -28 26 -27 -26 -4 -3 -3 3 -28 26 -27 -26 -4 -3 -4 3 -24 23c0,-52 55,-94 121,-94zm96 229l-192 0c-15,-16 -25,-36 -25,-58l24 23 4 4 4 -4 27 -25 28 25 3 4 4 -4 27 -25 28 25 4 4 3 -4 28 -25 27 25 4 4 3 -4 25 -23c0,22 -10,42 -26,58zm19 -126c15,0 28,12 28,27l0 5c0,15 -13,27 -28,27l-229 0c-16,0 -28,-12 -28,-27l0 -5c0,-15 12,-27 28,-27l229 0zm377 1072l-12 -10 1 -8 -11 0 -64 -49c10,-11 14,-22 15,-34l0 0c0,-3 0,-7 0,-10l16 -5 212 70c-37,28 -113,80 -157,46zm-80 -451c0,-2 0,-4 0,-5 -1,-18 -5,-36 -10,-50l170 -567c38,54 83,123 51,190l-211 432zm-71 273c3,-1 5,-2 8,-3 39,-15 51,-77 45,-129 19,52 33,119 -3,152 -13,-10 -30,-17 -50,-20zm21 -222c15,69 8,152 -43,180 -23,13 -49,10 -74,-2 33,-5 47,-11 67,-30 38,-37 47,-105 50,-148zm11 33c30,76 17,154 -25,179 -16,10 -41,12 -63,5 -18,-5 -40,-18 -56,-38 15,6 28,14 39,16 36,5 55,-5 73,-21 27,-24 42,-87 32,-141zm38 192c8,-17 10,-38 8,-60l64 -57c3,23 -1,79 -32,95l-40 22zm9 57c-2,-8 -6,-15 -11,-22 -4,-5 -8,-10 -13,-14 3,-3 5,-6 8,-9l84 -47c-3,23 -22,80 -57,89l-11 3zm-3 -127c0,-7 -2,-13 -3,-20 -2,-8 -4,-16 -7,-24 0,-2 -1,-3 -1,-4l66 -98c9,21 17,82 -9,105l-46 41zm-15 -59c-4,-10 -8,-19 -10,-21 -2,-11 -5,-21 -8,-32l46 -112c14,19 34,71 14,102l-42 63zm-22 -63c-3,-6 -6,-12 -9,-17 -2,-11 -4,-18 -7,-29l14 -125c7,7 17,27 22,50 6,23 8,49 0,68l-20 53zm-28 -13c-13,120 -67,146 -124,153 30,-28 47,-58 58,-103l129 -558 -63 508zm107 -791c36,36 94,122 76,182l-137 470c-3,-6 -8,-16 -11,-18l-8 -10 42 -340 4 -61 34 -223zm-2 749c-4,-19 -15,-44 -22,-55l238 -479c23,47 46,183 8,233l-224 301zm31 240c3,-9 6,-21 6,-27l1 -13 -11 6 -10 6c1,-2 2,-3 3,-5 4,-8 7,-16 9,-24l304 -47c-31,43 -78,106 -140,105l-162 -1zm-3 8l234 8c-32,31 -102,98 -153,82l-119 -37c1,0 1,-1 2,-1 5,-4 9,-8 13,-12 10,-11 17,-26 23,-40zm3 -73c2,-13 3,-30 2,-39l326 -156c-16,50 -53,145 -115,156l-213 39zm3 -49l-4 -8 -8 7c2,-5 4,-9 5,-14 3,-13 4,-28 3,-42l327 -273c6,48 -19,181 -87,214l-236 116zm-5 -66c-2,-11 -5,-25 -8,-31l-4 -12 -7 10 -10 16c0,0 0,0 0,0 3,-13 1,-23 1,-35l299 -384c35,45 17,189 -33,232l-238 204zm-734 374c13,-11 30,-19 48,-25 19,-5 39,-9 59,-12 21,-3 42,-5 62,-5l159 0c20,0 41,2 62,5 20,3 40,7 59,12 18,6 35,14 48,25 9,6 11,18 4,27 -7,9 -19,10 -28,4 -12,-10 -27,-17 -44,-22 -16,-5 -34,-8 -53,-9 -18,-2 -37,-3 -55,-3l-146 0c-17,0 -36,1 -54,3 -19,1 -37,4 -53,9 -17,5 -32,12 -44,22 -9,6 -21,5 -28,-4 -7,-9 -5,-21 4,-27zm315 -47c21,-17 34,-42 34,-70 0,0 0,0 0,0 17,6 47,2 74,-12 5,-3 10,-6 15,-9 19,16 31,39 33,62 2,17 -2,34 -11,49 -3,-1 -6,-2 -10,-3 -9,-3 -19,-5 -29,-8 -10,-2 -20,-3 -31,-5l0 0c-10,-1 -21,-2 -31,-3 -10,-1 -21,-1 -31,-1l-13 0zm138 -224c5,17 9,31 20,44 14,19 35,30 49,35 3,1 6,2 9,3 -14,3 -28,4 -41,4 -10,-1 -24,-2 -31,-6 -8,-9 -16,-8 -22,-1 -2,-25 6,-67 16,-79zm145 273c-20,-18 -37,-35 -49,-50 -12,-16 -17,-25 -23,-39 -8,-18 -6,-36 6,-51 6,-7 12,-11 21,-14 31,-10 63,7 68,40 1,9 0,18 -4,27 -4,10 -12,19 -23,25 20,13 44,22 64,27 21,5 42,7 63,8l3 0 0 3c-1,8 -6,18 -14,28 -7,7 -15,13 -24,18 -10,5 -21,6 -34,6 -17,-2 -33,-10 -54,-28zm-64 -185c96,-19 158,51 115,101 -11,13 -28,22 -43,23 -1,0 -1,0 -2,-1 6,-4 11,-9 15,-15 0,-1 1,-2 2,-4 1,-1 1,-2 2,-4l0 0 0 0 0 0c3,-7 4,-14 4,-22 0,-1 0,-3 0,-4 0,-2 0,-3 0,-5l0 0 0 0c-1,-7 -4,-14 -8,-21 -1,-1 -1,-2 -2,-3 -1,-1 -2,-2 -3,-4l0 0c-6,-6 -13,-11 -22,-14 -1,-1 -3,-1 -5,-2 -2,0 -4,-1 -5,-1l0 0c-9,-1 -17,-1 -24,0 -1,0 -2,1 -4,1 -1,0 -2,1 -3,1l-1 0 0 0c-7,2 -13,6 -18,10l0 0c-1,1 -2,2 -2,3 -1,1 -2,2 -3,3l0 0 0 0 0 0c-4,5 -7,11 -9,17 0,1 -1,2 -1,4 0,1 0,2 -1,3l0 0c0,6 0,13 1,19 0,1 0,3 1,4 0,1 0,2 1,4l0 0c0,0 0,0 0,0l0 0c0,0 0,0 0,0l0 0c0,0 0,0 0,0l0 0 0 0c0,0 0,0 0,0l0 0c2,7 5,15 10,22 4,8 9,16 16,24 6,7 13,15 21,24 8,8 18,17 28,26 13,12 25,19 37,23 23,18 49,38 79,60 19,12 -136,-34 -202,-62 2,-5 3,-10 2,-15 0,-7 -4,-13 -9,-17l0 0 0 0c-7,-5 -15,-10 -24,-14 -4,-2 -8,-4 -12,-6 7,-13 11,-28 11,-43 0,-29 -14,-55 -35,-72 16,-13 26,-30 20,-43 20,7 48,4 73,0zm-103 44c-9,6 -36,18 -52,20 -12,2 -24,-4 -25,-14 -1,-10 8,-13 23,-14 15,-1 25,-5 39,-13 13,-8 19,-26 28,-30 9,-5 17,8 12,23 -4,9 -15,21 -25,28zm-468 -44c25,4 52,7 73,0 -6,13 4,30 20,43 -22,17 -35,43 -35,72 0,15 4,30 11,43 -4,2 -8,4 -12,6 -9,4 -17,9 -24,14l0 0 0 0 0 0c-5,4 -9,10 -10,17 0,5 1,10 3,15 -66,28 -221,74 -202,62 30,-22 56,-42 79,-60 11,-4 24,-11 37,-23 10,-9 19,-18 28,-26 8,-9 15,-17 21,-24 7,-8 12,-16 16,-24 4,-7 8,-15 10,-22l0 0c0,0 0,0 0,0l0 0 0 0c0,0 0,0 0,0l0 0c0,0 0,0 0,0l0 0c0,0 0,0 0,0l0 0c1,-2 1,-3 1,-4 1,-1 1,-3 1,-4 1,-6 1,-13 0,-19l0 0c0,-1 0,-2 0,-3 0,-2 -1,-3 -1,-4 -2,-6 -5,-12 -9,-17l0 0 0 0 0 0c-1,-1 -2,-2 -3,-3 -1,-1 -1,-2 -2,-3l0 0c-5,-4 -11,-8 -19,-10l0 0 0 0c-1,0 -2,-1 -3,-1 -2,0 -3,-1 -4,-1 -7,-1 -15,-1 -24,0l0 0c-2,0 -3,1 -5,1 -2,1 -4,1 -5,2 -9,3 -16,8 -22,14l0 0c-1,2 -2,3 -3,4 -1,1 -1,2 -2,3 -4,7 -7,14 -8,21l0 0 0 0c0,2 0,3 0,5 0,1 0,3 0,4 0,8 1,15 4,22l0 0 0 0 0 0c1,2 1,3 2,4 1,2 2,3 2,4 4,6 9,11 15,15 -1,1 -1,1 -2,1 -15,-1 -32,-10 -43,-23 -43,-50 18,-120 115,-101zm219 136l-13 0c-11,0 -21,0 -31,1 -10,1 -21,2 -31,3 -11,2 -21,3 -31,5 -10,3 -20,5 -29,8 -4,1 -7,2 -10,3 -9,-15 -13,-32 -11,-49 2,-23 14,-46 33,-62 5,3 10,6 15,9 27,14 57,18 74,12 0,0 0,0 0,0 0,28 13,53 34,70zm-116 -92c-10,-7 -21,-19 -25,-28 -5,-15 2,-28 12,-23 9,4 15,22 28,30 14,8 23,12 38,13 15,1 25,4 24,14 -1,10 -13,16 -25,14 -16,-2 -43,-14 -52,-20zm-22 -132c10,12 18,54 16,79 -6,-7 -14,-8 -22,1 -7,4 -22,5 -31,6 -13,0 -27,-1 -41,-4 3,-1 6,-2 9,-3 14,-5 35,-16 49,-35 11,-13 15,-27 20,-44zm-146 273c-20,18 -36,26 -53,28 -13,0 -24,-1 -34,-6 -9,-5 -17,-11 -24,-18 -8,-10 -13,-20 -14,-28l0 -3 3 0c20,-1 41,-3 63,-8 20,-5 44,-14 64,-27 -11,-6 -19,-15 -23,-25 -4,-9 -5,-18 -4,-27 5,-33 37,-50 68,-40 9,3 15,7 21,14 12,15 14,33 6,51 -6,14 -11,23 -23,39 -12,15 -29,32 -50,50zm-106 -436l-224 -301c-38,-50 -15,-186 8,-233l238 479c-7,11 -18,36 -22,55zm-35 422c-44,34 -120,-18 -157,-46l212 -70 16 5c0,3 0,7 0,10l0 0c1,12 5,23 15,34l-64 49 -11 0 1 8 -12 10zm7 -174c6,14 13,29 23,40 4,4 8,8 13,12 1,0 1,1 2,1l-119 37c-51,16 -121,-51 -153,-82l234 -8zm-3 -8l-162 1c-62,1 -109,-62 -140,-105l304 47c2,8 5,16 9,24 1,2 2,3 3,5l-10 -6 -11 -6 1 13c0,6 3,18 6,27zm0 -65l-213 -39c-62,-11 -100,-106 -115,-156l326 156c-1,9 0,26 2,39zm-4 -49l-236 -116c-67,-33 -92,-166 -86,-214l327 273c-1,14 0,29 3,42 1,5 3,9 5,14l-8 -7 -5 8zm6 -66l-238 -204c-50,-43 -68,-187 -33,-232l299 384c0,12 -2,22 1,35 0,0 0,0 0,0l-10 -16 -7 -10 -4 12c-3,6 -6,20 -8,31zm27 -809l34 223 4 61 42 340 -8 10c-3,2 -8,12 -11,18l-137 -470c-18,-60 40,-146 76,-182zm39 1053l-12 -3c-34,-9 -53,-66 -56,-89l84 47c3,3 5,6 8,9 -5,4 -10,9 -13,14 -5,7 -9,14 -11,22zm79 -60c-20,3 -37,10 -50,20 -36,-33 -22,-100 -3,-152 -6,52 6,114 45,129 2,1 5,2 8,3zm-70 3l-40 -22c-31,-16 -35,-72 -32,-95l64 57c-2,22 0,43 8,60zm-7 -70l-45 -41c-26,-23 -18,-84 -9,-105l66 98c-1,1 -1,2 -1,4 -3,8 -5,16 -7,24 -1,7 -3,13 -4,20zm16 -59l-42 -63c-20,-31 0,-83 14,-102l46 112c-3,11 -6,21 -8,32 -2,2 -6,11 -10,21zm29 -63c-10,54 5,117 32,141 18,16 37,26 73,21 11,-2 24,-10 39,-16 -17,20 -38,33 -56,38 -22,7 -47,5 -63,-5 -42,-25 -55,-103 -25,-179zm11 -33c3,43 12,111 50,148 20,19 34,25 67,30 -25,12 -51,15 -74,2 -51,-28 -58,-111 -43,-180zm-18 33l-20 -53c-16,-38 7,-104 22,-118l14 125c-3,11 -5,18 -7,29 -3,5 -6,11 -9,17zm-32 -84l-211 -432c-32,-67 13,-136 51,-190l170 567c-5,14 -9,32 -10,50 0,1 0,3 0,5zm60 71l-63 -508 129 558c11,45 28,75 58,103 -57,-7 -111,-33 -124,-153zm1428 -449l-411 1266 -1331 0 -411 -1266 1077 -782 1076 782zm-1072 -797l-4 -4 -5 4 -1085 788 -5 3 2 6 415 1276 1 5 6 0 1341 0 6 0 1 -5 415 -1276 2 -6 -5 -3 -1085 -788zm397 1563l57 45c-13,-1 -34,-5 -47,-8 -14,-3 -31,-9 -45,-16 12,-4 27,-13 35,-21zm-803 0c8,8 23,17 35,21 -14,7 -31,13 -45,16 -13,3 -34,7 -47,8l57 -45zm903 197c3,-2 6,-6 8,-9l0 0c1,-3 2,-6 2,-10 -1,-3 -2,-5 -4,-8 -2,-3 -6,-6 -10,-8 -19,-10 -41,-26 -71,-48 -1,-1 -3,-3 -4,-4 -1,0 -1,0 -1,0 7,-1 13,-3 18,-6 11,-5 19,-12 26,-19 6,-7 10,-17 13,-24l10 8c25,19 56,15 87,2 30,-12 59,-32 78,-46l14 -11 -17 -5 -65 -20c23,-1 47,-12 69,-27 28,-19 54,-43 70,-58l15 -15 -21 -1 -48 -1c56,-7 91,-56 120,-96 1,-1 1,-2 6,-9l13 -17 -21 3 -87 14 10 -2c34,-6 58,-33 76,-65 17,-31 28,-66 36,-92l6 -19 -18 9 -61 29c6,-4 12,-9 18,-15 8,-8 15,-17 21,-28 30,-52 37,-127 32,-163l-2 -16 -69 58c33,-50 49,-172 13,-218l-8 -9 -6 9 -53 70c2,-4 4,-8 5,-13 3,-10 6,-22 7,-35 6,-62 -11,-144 -28,-179l-8 -16 -8 16 -24 50c4,-26 0,-51 -9,-76 -13,-33 -34,-64 -53,-92l-10 -15 -5 18 -18 59c0,-3 0,-6 0,-8 0,-10 -2,-20 -4,-30 -14,-53 -51,-98 -89,-136l-49 318 -125 540c-5,22 -12,41 -21,57 -8,16 -20,30 -34,44l-2 1c-1,-3 -2,-5 -3,-8 -3,-7 -6,-14 -8,-23l-3 -11 -8 9c-8,10 -15,35 -17,58 0,5 0,9 -1,13 0,4 0,8 1,12l0 0 0 0 0 6c-1,1 -2,3 -3,5 -10,12 -18,19 -33,24 -5,2 -11,4 -18,4 -8,0 -15,1 -20,4 -7,3 -10,8 -9,16l0 0c0,1 0,-1 0,0l0 0c0,4 2,7 4,10 -1,0 -1,0 -1,0l0 0 -9 -3 0 9c0,25 -10,47 -28,62 -3,3 -6,5 -9,8l-113 0c-3,-3 -6,-5 -9,-8 -18,-15 -28,-37 -28,-62l0 -9 -9 3 0 0c0,0 0,0 -1,0 2,-3 4,-6 4,-10l0 0c0,-1 0,1 0,0l0 0c1,-8 -3,-13 -9,-16 -5,-3 -12,-4 -20,-4 -7,0 -13,-2 -18,-4 -15,-5 -23,-12 -33,-24 -1,-2 -2,-4 -3,-5l0 -6 0 0 0 0c1,-4 1,-8 0,-12 0,-4 0,-8 0,-13 -3,-23 -9,-48 -17,-58l-8 -9 -3 11c-2,9 -5,16 -8,23 -1,3 -2,5 -3,8l-2 -1c-14,-14 -26,-28 -35,-44 -9,-16 -15,-35 -20,-57l-125 -540 -49 -318c-38,38 -75,83 -89,136 -2,10 -4,20 -4,30 0,2 0,5 0,8l-18 -59 -5 -18 -10 15c-19,28 -40,59 -53,92 -9,25 -13,50 -9,76l-24 -50 -8 -16 -8 16c-17,35 -34,117 -28,179 1,13 4,25 7,35 1,5 3,9 5,13l-53 -70 -7 -9 -7 9c-36,46 -20,168 13,218l-69 -58 -2 16c-5,36 2,111 32,163 6,11 13,20 21,28 6,6 11,11 18,15l-61 -29 -18 -9 6 19c8,26 19,61 36,92 18,32 42,59 76,65l10 2 -87 -14 -21 -3 13 17c4,7 5,8 6,9 29,40 64,89 120,96l-48 1 -21 1 15 15c16,15 42,39 70,58 22,15 46,26 68,27l-64 20 -17 5 14 11c19,14 48,34 78,46 31,13 62,17 87,-2l10 -8c3,7 7,17 13,24 7,7 15,14 26,19 5,3 11,5 17,6 0,0 0,0 0,0 -1,1 -3,3 -4,4 -30,22 -52,38 -71,48 -4,2 -8,5 -10,8 -2,3 -3,5 -4,8 0,4 1,7 2,10l0 0c2,3 5,7 8,9 3,2 6,3 9,4 1,0 2,1 3,1l-1 3 0 0 0 0c3,3 7,6 10,10 3,3 6,7 8,11 13,20 20,43 24,66 -3,6 -5,12 -4,16 0,4 2,8 5,10 2,3 5,4 9,5 6,1 13,0 20,-4l0 0c1,0 2,-1 3,-1l0 0c1,-1 2,-1 3,-2l0 0c6,-4 9,-8 13,-12 4,-5 9,-11 25,-21 13,-8 35,-19 61,-30 92,-38 193,-32 291,-32 6,0 12,0 17,0l0 0 5 0c0,0 0,0 0,0l6 0 0 0c5,0 11,0 17,0 98,0 198,-6 291,32 26,11 47,22 61,30 16,10 21,16 25,21 4,4 7,8 13,12l0 0c1,1 2,1 3,2l0 0c1,0 2,1 3,1l0 0c7,4 14,5 20,4 4,-1 7,-2 9,-5 3,-2 5,-6 5,-10 0,-4 -1,-10 -4,-16 3,-23 11,-46 24,-66 2,-4 5,-8 8,-11 3,-4 7,-7 10,-10l0 0 0 0 -1 -3c1,0 2,-1 3,-1 3,-1 6,-2 9,-4zm-761 -881l0 0c0,0 0,0 0,0l0 0zm0 0l1 0c0,0 -1,0 -1,0zm-40 -381l0 0c0,0 0,0 0,0l0 0c0,0 0,0 0,0l0 0zm0 0l0 0c0,0 0,0 0,0zm259 932c-65,14 -93,-7 -99,-49l-4 -23 2 -2c4,-1 9,-2 13,-4 19,-8 36,-24 49,-40 2,-3 4,-6 6,-9 6,-10 11,-19 14,-28 0,3 2,6 3,8 1,2 3,4 4,5 -3,5 -5,11 -5,16l0 0 0 0c0,6 2,12 5,17 1,2 3,4 4,5 -3,5 -4,11 -4,16l0 0 0 0c0,5 1,12 4,17 1,1 3,3 4,4 -3,5 -4,11 -4,16l0 0 0 0c0,5 2,11 5,16 1,2 2,4 3,5 -3,5 -4,11 -4,15l0 0 0 0c0,5 1,10 4,15zm294 -904c-8,2 -16,6 -22,11 -1,1 -2,2 -3,3 0,1 -1,1 -1,2l-2 -1 -2 4c0,0 0,1 -1,1l0 0c-1,1 -1,2 -2,6 0,4 2,11 6,17 0,1 1,2 2,3l0 0c1,1 2,2 2,3 3,7 8,14 15,19 0,0 1,0 1,0 -1,1 -2,2 -3,2 0,1 -1,1 -2,2 -8,2 -16,6 -22,11 -1,1 -2,2 -3,3 -1,1 -1,1 -2,2l-1 -1 -3 4c0,0 0,1 0,1 -1,1 -2,2 -2,7 -1,4 1,11 5,17 1,1 2,2 3,3 1,1 1,2 2,3 3,8 8,15 16,20 0,0 0,0 0,0 -1,1 -1,1 -2,2 -1,1 -2,1 -3,2 -8,2 -16,6 -22,11 -2,1 -3,2 -4,4 0,0 -1,1 -2,1l-1 -1 -2 4c-1,1 -1,1 -1,1 -1,2 -1,3 -2,7 -1,4 1,12 5,18 1,1 2,3 3,4 1,0 2,1 3,2 2,8 8,16 16,21l0 0c0,0 0,0 0,0 -1,1 -1,2 -2,2 -1,1 -2,2 -3,2 -9,2 -17,6 -23,12 -2,1 -3,2 -4,3 -1,1 -1,2 -2,2l-1 -1 -3 4c0,1 0,1 0,1 -1,2 -2,3 -2,7 -1,5 1,12 5,19 1,1 2,2 3,3 1,1 2,2 3,3 2,8 8,16 16,21l0 0c1,1 1,1 1,1 -1,1 -2,1 -3,2 -1,1 -1,2 -2,2 -10,2 -18,7 -25,12 -1,1 -2,3 -3,4l0 0c-1,1 -2,1 -2,2l-2 -1 -2 4c0,0 -1,1 -1,1l0 0c-1,2 -1,3 -2,7 -1,5 1,13 6,19 1,2 2,3 3,4 1,1 1,2 2,3 3,8 9,16 17,22l0 0c1,0 1,0 2,1 0,0 0,0 0,0 -1,0 -3,1 -4,2l0 0c-1,1 -1,2 -2,2 -10,2 -19,7 -25,13 -2,1 -3,2 -4,3 -1,1 -2,2 -2,3l-2 -2 -2 5c0,0 -1,0 -1,1 -1,1 -2,2 -2,7 -1,5 1,13 6,20 1,1 2,2 3,3l0 0c1,1 2,2 3,3 2,9 9,17 17,23l0 0c1,0 1,1 2,1 0,0 0,0 0,1 -2,0 -3,1 -4,2 -1,1 -2,2 -3,2 -10,3 -19,7 -26,13 -1,1 -2,3 -4,4l0 0c0,1 -1,2 -2,2l-1 -1 -3 4c0,1 0,1 0,1l0 0c-2,2 -2,3 -3,8 -1,5 2,13 6,20 1,1 2,3 4,4l0 0c0,1 1,2 2,3 3,9 10,17 18,23 1,1 2,1 3,2 0,0 -1,0 -1,1 -1,1 -3,1 -4,2 -1,1 -2,2 -3,3 -10,2 -19,6 -26,13 -2,1 -3,2 -4,4 -1,1 -2,1 -3,2l-1 -1 -3 4c0,1 0,1 0,2l0 0c-2,1 -2,2 -3,7 -1,5 2,14 7,21 1,1 2,3 3,4 1,1 2,2 3,3 2,9 9,18 18,24l0 0c1,1 3,2 4,2 -1,1 -2,1 -2,1 -2,1 -3,2 -4,3 -1,1 -2,2 -3,3 -11,2 -20,7 -28,13 -1,1 -3,3 -4,4 -1,1 -2,2 -2,3l-2 -1 -2 4c-1,0 -1,1 -1,1l0 0c-1,2 -2,3 -3,8 0,5 2,14 7,21 1,2 2,3 3,5 1,1 2,2 3,3 3,9 10,18 19,24l0 0c2,1 4,2 5,3 -1,1 -2,1 -3,2 -2,1 -3,2 -4,3 -1,1 -2,2 -3,2 -11,3 -21,8 -28,14 -2,2 -3,3 -5,4 -1,2 -2,3 -3,4l-1 -2 -3 5c0,0 0,1 0,1 -1,2 -2,3 -3,8 -1,5 2,14 7,22 1,1 2,3 3,4 1,1 2,2 3,3 3,10 10,19 20,26 2,1 4,2 6,3 3,2 7,3 11,4l-3 15c-6,42 -34,63 -99,49 3,-5 4,-10 4,-15l0 0 0 0c0,-4 -2,-10 -4,-15 1,-1 2,-3 3,-5 3,-5 5,-11 5,-16l0 0 0 0c0,-5 -1,-11 -4,-16 1,-1 2,-3 3,-4 3,-5 5,-12 5,-17l0 0 0 0c0,-5 -1,-11 -4,-16 1,-1 2,-3 4,-5 3,-5 5,-11 5,-17l0 0 0 0c0,-5 -2,-11 -5,-16 1,-1 3,-3 4,-5 3,-5 5,-11 5,-17l0 0 0 0c0,-5 -2,-11 -5,-16 2,-2 3,-3 4,-5l0 0c3,-5 5,-12 5,-18l0 0 0 0c0,-5 -2,-11 -5,-16 2,-2 3,-4 4,-5 4,-6 6,-12 6,-18l0 0 0 0c0,-6 -2,-12 -5,-17 1,-2 2,-3 4,-5 3,-5 5,-12 5,-18l0 0 0 0c0,-6 -2,-12 -5,-17 1,-2 3,-3 4,-5 4,-6 6,-12 6,-18l0 0 0 0c0,-6 -2,-13 -6,-18 2,-2 3,-3 5,-5 3,-6 6,-13 6,-19l0 0 0 0c0,-6 -3,-12 -6,-18 1,-1 3,-3 4,-5 4,-5 6,-12 6,-18l0 0 0 0c0,-7 -2,-14 -6,-19 2,-1 3,-3 5,-5 4,-6 6,-13 6,-19l0 0 0 0c0,-6 -2,-13 -6,-19 0,0 0,0 0,0 1,-1 3,-3 4,-5 4,-6 7,-13 7,-19l0 0 0 0c0,-7 -3,-14 -6,-19 -1,0 -1,0 -1,-1 2,-1 4,-3 5,-5 4,-6 7,-13 7,-19l0 0 0 0c0,-7 -3,-14 -7,-20 0,0 0,0 0,0 2,-2 4,-3 5,-6 4,-5 7,-13 7,-19l0 0 0 0c0,-7 -3,-14 -7,-20 0,0 0,0 0,0 2,-2 4,-4 5,-6 4,-6 7,-13 7,-20l0 0 0 0c0,-6 -3,-14 -7,-19 0,-1 0,-1 0,-1 2,-2 4,-4 5,-6 5,-6 8,-13 8,-20l0 0 0 0c0,-7 -3,-14 -8,-20 0,0 0,-1 0,-1 2,-2 4,-4 5,-6 5,-6 8,-13 8,-20l0 0 0 0c0,-7 -3,-15 -8,-21 -3,-4 -8,-8 -14,-10 16,-16 25,-37 25,-59l0 0c0,-2 0,-3 0,-4 0,0 0,0 0,0l0 0c0,-1 0,-1 0,-1 4,-2 7,-4 11,-7 6,-6 10,-14 10,-23l0 0 0 -5 0 0c0,-9 -4,-17 -10,-23 -4,-3 -7,-5 -11,-6 0,-1 0,-1 0,-1l0 0c0,0 0,0 0,0 0,-2 0,-3 0,-4l0 -1c0,-28 -15,-53 -38,-71 -21,-16 -48,-27 -78,-29 1,-2 2,-4 3,-6 3,-6 5,-15 5,-25l0 0 0 0c0,-9 -2,-18 -5,-25 -3,-8 -8,-12 -15,-12l0 0 0 0c-6,0 -11,4 -14,12 -3,7 -5,16 -5,25l0 0 0 0c0,10 2,19 5,25 1,2 2,4 3,6 -30,2 -58,13 -78,29 -23,18 -38,43 -38,72l0 0c0,1 0,2 0,4 0,0 0,0 0,0l0 0c0,0 0,0 0,1 -4,1 -7,3 -11,6 -6,6 -10,14 -10,23l0 0 0 5 0 0c0,9 4,17 10,23 4,3 7,5 11,7 0,0 0,0 0,1l0 0c0,0 0,0 0,0 0,1 0,2 0,4l0 0c0,22 9,43 25,59 -6,2 -11,6 -14,10 -5,6 -8,14 -8,21l0 0 0 0c0,7 3,14 8,20 1,2 3,4 5,6 0,0 0,1 0,1 -5,6 -8,13 -8,20l0 0 0 0c0,7 3,14 8,20 1,2 3,4 5,6 0,0 0,0 0,1 -5,5 -7,13 -7,19l0 0 0 0c0,7 2,14 7,20 1,2 3,4 5,6 0,0 0,0 0,0 -4,6 -7,13 -7,20l0 0 0 0c0,6 3,14 7,19 1,3 3,4 5,6 0,0 0,0 0,0 -4,6 -7,13 -7,20l0 0 0 0c0,6 3,13 7,19 1,2 3,4 5,5 0,1 -1,1 -1,1 -4,5 -6,12 -6,19l0 0 0 0c0,6 2,13 6,19 2,2 3,4 5,5 0,0 0,0 0,0 -4,6 -6,13 -6,19l0 0 0 0c0,6 2,13 6,19 2,2 3,4 5,5 -4,5 -6,12 -6,19l0 0 0 0c0,6 2,13 6,18 1,2 3,4 4,5 -3,6 -6,12 -6,18l0 0 0 0c0,6 3,13 6,19 2,2 3,3 5,5 -4,5 -6,12 -6,18l0 0 0 0c0,6 2,12 6,18 1,2 3,3 4,5 -3,5 -5,11 -5,17l0 0 0 0c0,6 2,13 5,18 2,2 3,3 4,5 -3,5 -5,12 -5,17l0 0 0 0c0,6 2,12 6,18 1,1 2,3 4,5 -3,5 -5,11 -5,16l0 0 0 0c0,6 2,13 5,18l0 0c1,2 2,3 4,5 -1,2 -2,4 -3,6 -6,0 -12,1 -17,4 -20,7 -37,23 -50,39 -3,3 -5,6 -7,9 -6,9 -11,17 -13,26l-12 -79 2 -2c11,-2 23,-9 36,-20 2,-2 5,-4 7,-7 3,-2 5,-4 8,-7 2,-2 0,0 0,0l0 0c13,-15 22,-31 26,-45 1,-2 2,-5 2,-7 0,-3 1,-6 1,-8 0,0 0,0 0,0l-1 -4 -3 0c-12,0 -26,7 -40,19 -3,2 -5,4 -8,7 -3,3 -5,5 -8,8l0 0c0,0 0,0 0,0 -12,14 -21,28 -25,41 -1,1 -1,1 -1,2l-12 -79 3 -4c10,-2 23,-9 34,-19 3,-2 5,-4 7,-7 3,-2 5,-5 7,-7l0 0 0 0 0 0c13,-15 21,-30 25,-43l0 0c1,-3 1,-6 2,-8 0,-3 0,-5 0,-7l0 -5 -4 1c-11,0 -24,7 -38,19 -2,2 -5,4 -7,7 -3,2 -5,5 -8,8l0 0 0 0c-11,13 -19,27 -24,39 0,1 0,2 0,3l-12 -79 3 -5c10,-3 22,-10 33,-20 2,-2 4,-4 6,-6 3,-2 5,-5 7,-7l0 0 0 0 0 0c12,-14 20,-30 23,-42 1,-3 1,-5 1,-8 1,-2 1,-4 1,-7l-1 -4 -4 1c-10,0 -23,7 -35,18 -3,3 -5,5 -8,7 -12,13 -23,29 -29,47 0,1 0,2 -1,3l-12 -81 5 -5c9,-2 20,-9 30,-19 2,-2 4,-4 6,-6 2,-3 4,-5 6,-7l0 0 1 0 0 0c10,-14 18,-29 21,-41 0,-3 1,-5 1,-7 0,-3 0,-5 0,-7l0 0 0 0 0 -4 -4 0c-10,1 -22,8 -34,19 -2,2 -5,5 -7,7 -2,2 -4,5 -7,8l0 0 0 0 0 0c-10,12 -17,25 -20,37 0,1 -1,3 -1,4l-12 -81 0 0 5 -7c9,-2 19,-9 29,-18 2,-2 4,-4 5,-7l0 0c2,-2 4,-4 6,-7l0 0 0 0 0 0c10,-13 17,-27 20,-39l0 0c0,-2 0,-5 1,-7 0,-2 0,-4 0,-6l0 0 -1 -4 -4 0c-9,1 -21,8 -32,19 -2,2 -4,4 -6,7 -2,2 -4,4 -6,7l0 0 0 0c-10,12 -16,25 -19,36 -1,2 -1,4 -1,6l-13 -84 6 -6c8,-3 18,-9 27,-19 2,-2 4,-4 5,-6 2,-2 4,-4 6,-7l0 0c9,-13 15,-26 17,-38 1,-2 1,-4 1,-6 0,-2 0,-4 0,-6l0 0 0 -1 0 -4 -4 1c-9,2 -20,8 -31,19 -2,2 -4,4 -6,6 -2,2 -3,5 -5,7l0 0c0,1 0,0 0,1l0 0c-8,11 -14,23 -17,33 0,2 -1,4 -1,6 0,1 -1,2 -1,3l-12 -83 2 -4 4 -6c9,-3 18,-9 27,-18 1,-2 3,-4 5,-6 1,-2 2,-4 4,-6 0,0 14,-19 17,-38 1,-2 1,-4 1,-6 0,-2 0,-4 -1,-6l0 -4 -4 1c-9,2 -20,8 -30,19 -2,2 -4,4 -5,6 -2,2 -4,4 -6,7l0 0 0 0c-8,11 -13,23 -16,34 0,2 0,4 -1,5 0,2 0,3 0,4l-11 -75c4,-9 7,-21 7,-36 0,-3 0,-6 0,-9 -1,-24 -8,-53 -29,-69 -14,19 -15,42 -12,64l0 0c0,0 0,0 0,0l0 0c3,18 7,37 19,51l9 63c-2,-9 -8,-19 -16,-29 -2,-2 -4,-4 -6,-6 -2,-2 -4,-4 -6,-6l0 0c-13,-11 -26,-19 -38,-22 -2,0 -4,-1 -6,-1 -4,0 -7,-1 -11,0 1,14 8,26 17,37 4,5 8,10 13,14 12,10 26,19 41,23 2,0 3,0 5,0l9 7 1 0 13 86c-4,-14 -14,-26 -24,-35 -13,-13 -29,-23 -46,-28 -6,-1 -11,-1 -17,-1 1,15 8,27 18,38 4,5 9,10 14,14l0 0 0 0 0 0c12,10 27,19 42,22l0 0c2,0 4,0 6,1l9 6 0 0 13 86c-3,-9 -9,-20 -19,-30 -2,-2 -4,-4 -6,-6 -2,-2 -5,-4 -7,-6l0 0 0 0 0 0c-14,-11 -29,-18 -41,-21 -3,0 -5,-1 -7,-1 -2,0 -5,0 -7,0l-4 1c2,15 10,27 20,38l0 0c2,3 5,5 7,7 13,12 28,22 45,26 2,1 4,2 6,2 2,0 4,1 6,1l10 5 0 1 13 85c-3,-9 -10,-19 -20,-29 -2,-2 -5,-4 -7,-6 -2,-2 -5,-4 -7,-6l0 0c0,0 0,0 0,0l0 0c0,0 0,0 0,0l0 0c-1,0 -1,0 -1,0l0 0 0 0c0,0 0,0 0,0l0 0 0 0c0,0 0,0 0,0l0 0c0,0 0,0 0,0l0 0c-14,-11 -30,-18 -42,-21 -3,0 -5,0 -7,0 -3,-1 -5,0 -7,0l-4 0 0 4c2,11 10,23 21,35 3,3 5,5 8,7 2,2 5,4 8,7l0 0 0 0 0 0c13,9 26,16 38,19 2,0 4,1 7,1 2,1 4,1 6,1l0 0c0,0 0,0 0,0l9 5 1 0 2 14 -1 1 1 0 11 71c-4,-9 -12,-20 -22,-29 -2,-3 -5,-5 -7,-7 -3,-2 -5,-4 -8,-6l0 0 0 0 0 0c-15,-10 -31,-17 -44,-19 -3,-1 -5,-1 -8,-1 -2,0 -4,0 -7,0l-4 1 1 4c2,10 10,23 22,35 3,3 5,5 8,7 3,2 6,4 8,6l0 0 1 0 0 1c13,9 28,16 40,18 2,1 5,1 7,2 2,0 4,0 6,0l9 5 13 86c-4,-9 -12,-20 -23,-30 -2,-2 -5,-4 -7,-6 -3,-2 -6,-4 -8,-6l0 0c0,0 0,0 0,0l0 0c-16,-11 -33,-17 -46,-19l0 0c-3,-1 -6,-1 -8,-1 -2,0 -5,0 -7,1l0 0 -4 0 1 4c2,11 11,24 24,36 2,2 5,5 7,7l1 0c2,2 5,4 8,6l0 0 0 0 0 0c15,10 30,16 42,19 3,0 5,1 8,1 2,0 4,0 6,0l9 5 13 86c-5,-10 -13,-20 -25,-30l0 0c-2,-2 -4,-4 -7,-6 -3,-3 -6,-5 -9,-6l0 0 0 0 0 0c-16,-11 -34,-17 -47,-19 -3,0 -6,-1 -8,-1 -3,0 -5,1 -8,1l-4 1 1 4c3,11 12,24 26,36 2,2 5,5 8,7l0 0c3,2 6,4 9,6l0 0 0 0 0 0c15,10 31,16 44,18 2,1 5,1 7,1 2,0 4,0 6,0l9 5 13 86c-4,-10 -13,-21 -25,-31 -19,-15 -42,-28 -66,-30 -3,0 -6,0 -9,0 -2,0 -5,0 -7,1 -2,0 -3,0 -4,1l1 3c3,12 13,25 27,37 6,5 12,9 18,13l0 0 0 0 0 0 0 0 0 0 0 0c0,0 0,0 0,0 0,0 0,0 0,0l0 0 0 0c1,0 0,0 0,0 0,0 0,0 0,0 0,0 0,0 0,0 16,10 32,16 45,18l0 0c3,0 5,0 8,1 2,0 4,0 6,-1l9 4 5 37c8,51 41,76 115,60 -1,2 -1,4 -1,6l0 0 0 0c0,6 2,12 4,17 1,1 3,3 4,4 -3,5 -4,10 -4,15l0 0 0 0c0,5 2,11 4,16 1,2 2,3 4,4 -3,5 -4,10 -4,15l0 0 0 0c0,5 2,11 4,16 1,1 2,3 3,4 -2,5 -3,10 -3,15l0 0 0 0c0,4 1,10 4,15 3,6 7,10 13,10l0 0 23 0 0 0c6,0 10,-4 13,-10 3,-5 4,-11 4,-15l0 0 0 0c0,-5 -1,-10 -3,-15 1,-1 2,-3 3,-4 2,-5 4,-11 4,-16l0 0 0 0c0,-5 -1,-10 -4,-15 2,-1 3,-2 4,-4 2,-5 4,-11 4,-16l0 0 0 0c0,-5 -1,-10 -4,-15 1,-1 3,-3 3,-4 3,-5 5,-11 5,-17l0 0 0 0c0,-2 0,-4 -1,-6 74,16 107,-9 115,-60l2 -17c13,0 25,-3 33,-10 3,-2 5,-4 6,-6 2,-1 3,-3 4,-5 5,-2 9,-5 12,-8l0 0c1,-1 2,-2 2,-2 4,-5 7,-10 8,-14l0 0c0,-5 0,-6 -1,-8 0,-1 0,-1 0,-2l-1 -4 -2 0c-3,-9 -9,-17 -18,-24 -1,-1 -3,-2 -5,-4 -1,-1 -3,-2 -5,-2 -2,-4 -4,-8 -7,-10 8,-2 15,-5 21,-10 2,-1 4,-3 6,-5 1,-1 3,-3 4,-5 4,-2 8,-5 11,-8l0 0c1,-1 2,-2 2,-2 4,-5 7,-9 7,-13l0 0c1,-5 1,-6 0,-8 0,-1 0,-1 0,-2l-1 -5 -2 1c-3,-8 -9,-16 -17,-23 -2,-1 -4,-3 -5,-4 -2,-1 -3,-2 -5,-2 -2,-4 -4,-7 -6,-9 7,-2 14,-5 19,-9 2,-2 4,-3 6,-5 1,-2 2,-3 3,-5 5,-2 9,-5 12,-8 1,-1 1,-1 2,-2 4,-4 6,-9 7,-13l0 0c0,-5 0,-6 -1,-8 0,0 0,0 0,-1l-1 -5 -2 1c-3,-8 -9,-16 -16,-22 -2,-2 -4,-3 -5,-4 -2,-1 -3,-2 -5,-3 -1,-2 -3,-5 -5,-7 6,-2 13,-5 18,-9 2,-1 3,-3 5,-5 1,-1 3,-3 4,-4 4,-2 8,-5 11,-8 0,-1 1,-1 2,-2 3,-4 6,-9 6,-12l0 0c1,-5 1,-6 0,-8l0 0c0,-1 0,-1 0,-2l-1 -4 -2 0c-3,-8 -9,-15 -16,-21 -2,-1 -3,-2 -5,-4 -1,0 -3,-1 -4,-2 -2,-3 -3,-5 -5,-7 6,-2 12,-4 17,-8 2,-2 3,-3 5,-5 1,-1 2,-3 3,-4 5,-2 8,-5 11,-8 1,-1 1,-1 2,-2 4,-4 6,-8 6,-12l0 0c1,-5 1,-6 0,-8 0,0 0,0 0,-1l-1 -5 -2 1c-3,-8 -9,-15 -16,-20 -1,-2 -3,-3 -4,-4 -2,-1 -3,-2 -4,-2 -2,-3 -3,-5 -5,-7 6,-1 12,-4 16,-7 2,-2 4,-3 5,-5 2,-1 3,-3 4,-4 4,-2 7,-5 10,-8 1,0 1,-1 2,-2 3,-4 6,-8 6,-11l0 0c1,-5 1,-6 0,-8 0,0 0,0 0,-1l-1 -5 -2 1c-3,-7 -9,-14 -15,-20 -2,-1 -3,-2 -5,-3 -1,-1 -2,-2 -4,-3 -1,-2 -2,-4 -4,-5 6,-2 11,-4 15,-8 2,-1 4,-2 5,-4 1,-1 3,-3 4,-4 3,-2 7,-5 10,-7 0,-1 1,-2 1,-2l0 0c4,-4 6,-8 6,-11l0 -1c1,-4 1,-5 0,-7 0,0 0,0 0,-1l-1 -5 -2 1c-3,-7 -8,-14 -14,-19 -2,-1 -3,-3 -5,-4 -1,0 -2,-1 -4,-2 -1,-2 -2,-4 -3,-5 5,-2 10,-4 14,-7 2,-2 3,-3 5,-4 1,-2 2,-3 3,-5 4,-1 7,-4 10,-7 0,0 1,-1 1,-1 4,-4 6,-8 6,-11l0 0c1,-5 1,-6 0,-7 0,-1 0,-1 0,-1l-1 -5 -2 0c-3,-6 -8,-13 -14,-18 -1,-1 -3,-2 -4,-3 -1,-1 -3,-2 -4,-2 -1,-2 -2,-4 -3,-5 5,-2 9,-4 13,-7 2,-2 4,-3 5,-4 1,-2 2,-3 3,-4 4,-2 7,-4 9,-7l0 0c1,-1 1,-1 2,-2 3,-3 5,-7 6,-10l0 0c0,-5 0,-6 0,-7 0,-1 -1,-1 -1,-1l-1 -5 -1 1c-3,-7 -8,-13 -14,-18 -1,-1 -3,-2 -4,-3 -1,-1 -2,-2 -4,-3 -1,-1 -2,-3 -3,-4 5,-2 9,-4 13,-7 2,-1 3,-2 5,-4 1,-1 2,-2 3,-4 3,-1 6,-4 9,-6l0 0c0,-1 1,-1 1,-2 3,-3 5,-7 6,-10l0 0c0,-4 0,-5 0,-7l0 0c0,0 -1,-1 -1,-1l-1 -5 -1 1c-3,-7 -7,-12 -13,-17 -2,-1 -3,-2 -4,-3 -1,-1 -2,-2 -4,-2 -1,-3 -3,-6 -6,-8 0,0 -1,-1 -1,-1 0,0 -1,-1 -1,-1 7,-7 13,-19 15,-33 3,-21 -3,-41 -14,-47 -13,3 -25,19 -28,41 -2,14 0,27 4,36 -2,1 -4,2 -5,3 -1,0 -2,1 -3,2 -1,0 -2,1 -2,1zm-553 -28c0,0 0,0 0,0l0 0c0,0 0,0 0,0zm304 -542l-4 -3 -5 3 -1127 819 -4 3 2 5 430 1325 2 5 5 0 1393 0 5 0 2 -5 430 -1325 2 -5 -4 -3 -1127 -819z"/>
   <path class="fil3" d="M993 1428c4,24 15,42 36,50 16,7 38,7 67,1 1,2 2,3 3,4 -1,2 -2,5 -3,7 -32,7 -57,6 -74,-1 -23,-10 -34,-30 -39,-57l-125 -827c6,2 7,10 8,15 1,-2 -1,-14 3,-16l124 824z"/>
   <path class="fil4" d="M1256 1343l11 11 14 -7 12 10 14 -7 12 11 14 -7 11 11 8 -4c1,3 2,3 1,9 -1,6 -9,16 -20,21 -9,14 -28,23 -48,20 -20,-3 -36,-17 -40,-33 -9,-8 -14,-20 -13,-26 1,-6 1,-6 3,-8l6 6 15 -7zm122 -750l8 8 11 -5 8 8 11 -5 9 8 10 -5 9 8 6 -3c0,2 1,2 0,6 -1,5 -7,13 -15,16 -4,7 -12,12 -21,14 -1,0 -1,0 -2,-1 -3,-3 -7,-4 -11,-5l0 0c-6,-1 -11,0 -15,2 -8,-4 -14,-12 -16,-20 -7,-5 -10,-15 -10,-19 1,-5 1,-4 2,-6l5 4 11 -5zm-12 72c3,3 6,6 9,9 3,-2 7,-4 11,-6 3,3 6,6 9,9 3,-2 7,-4 11,-6 3,3 6,6 8,8 4,-1 8,-3 11,-5 3,3 6,6 9,8 2,-1 4,-2 6,-2 1,2 1,1 1,6 -1,5 -7,13 -16,17 -4,7 -12,12 -22,14 0,0 -1,-1 -1,-1l0 0c-4,-3 -8,-5 -12,-6l0 0c-6,0 -11,1 -16,3 -8,-5 -14,-12 -16,-21 -8,-6 -11,-15 -10,-20 0,-4 1,-4 2,-6 2,2 3,3 5,5 3,-2 7,-4 11,-6zm-12 75c3,2 6,5 9,8 4,-2 7,-3 11,-5 3,3 6,5 9,8 4,-2 8,-3 12,-5 3,3 6,6 9,8 4,-1 8,-3 11,-5 4,3 7,6 10,8 2,-1 4,-2 6,-3 0,3 1,2 0,7 0,5 -7,14 -16,17 -4,8 -13,13 -23,16 0,-1 -1,-1 -1,-2 -4,-3 -8,-5 -13,-5l0 0c-5,-1 -11,0 -16,2 -8,-5 -15,-13 -17,-21 -7,-6 -11,-16 -10,-21 0,-5 1,-4 2,-7 2,2 3,4 5,5 4,-2 8,-4 12,-5zm-13 77c3,2 6,5 10,8 3,-1 7,-3 11,-5 3,3 7,6 10,9 4,-2 8,-4 12,-6 3,3 6,6 9,9 4,-2 8,-4 12,-6 3,3 6,6 10,9 2,-1 4,-2 6,-3 1,2 1,2 0,7 0,5 -7,14 -16,18 -5,8 -14,13 -24,15 -1,0 -1,0 -2,-1 -3,-3 -8,-5 -13,-6l0 0c-5,0 -11,0 -16,3 -9,-5 -16,-13 -18,-22 -8,-7 -11,-17 -11,-22 1,-5 2,-4 3,-7 2,2 3,4 5,5 4,-2 8,-4 12,-5zm-13 79c3,3 7,6 10,9 4,-2 8,-4 12,-6 3,4 7,7 10,10 4,-2 8,-4 12,-6 3,3 7,6 10,9 4,-2 8,-4 12,-6 3,3 7,6 10,9 2,-1 5,-2 7,-3 0,3 1,2 0,7 -1,5 -7,15 -17,19 -5,8 -14,14 -25,16 -1,-1 -2,-1 -3,-2 -1,-1 -2,-1 -3,-2 -2,-1 -6,-3 -9,-3l0 0c-5,-1 -11,0 -16,2 -10,-5 -17,-13 -19,-23 -8,-6 -12,-17 -11,-22 1,-5 1,-5 2,-7 2,2 4,3 6,5 4,-2 8,-4 12,-6zm-14 83c4,3 7,6 11,9 4,-2 8,-4 12,-6 4,3 7,6 11,10 4,-2 8,-4 12,-7 4,4 7,7 10,10 5,-2 9,-4 13,-6 3,3 7,6 10,9 2,-1 5,-2 7,-3 1,3 1,2 0,8 0,5 -7,14 -17,19 -6,8 -15,15 -27,17 0,-1 -1,-2 -2,-2 -1,-1 -2,-1 -3,-2l0 0c-3,-2 -6,-3 -9,-3l-1 0c-5,-1 -11,0 -16,2 -10,-5 -17,-14 -20,-24 -8,-7 -12,-18 -11,-23 0,-6 1,-5 2,-7 2,1 4,3 6,5 4,-2 8,-4 12,-6zm-13 85c3,4 7,7 10,10 4,-2 9,-4 13,-6 4,3 7,6 11,10 4,-2 8,-4 13,-7 3,4 7,7 10,10 5,-2 9,-4 13,-6 4,3 7,6 11,10 2,-1 5,-3 7,-4 1,3 1,3 0,8 -1,6 -8,15 -18,20 -6,9 -16,15 -28,17 -1,0 -1,-1 -2,-1 -1,-1 -2,-1 -3,-2 -3,-2 -6,-3 -10,-3l0 0c-5,-1 -10,0 -16,2 -11,-6 -18,-15 -21,-25 -9,-7 -13,-19 -12,-24 1,-6 1,-5 3,-8 2,2 4,4 6,6 4,-2 8,-5 13,-7zm-15 89c4,4 7,7 11,11 4,-3 9,-5 13,-7 4,3 8,7 11,10 5,-2 9,-4 14,-6 3,3 7,6 11,10 4,-2 8,-5 13,-7 4,4 7,7 11,10 2,-1 5,-2 7,-3 1,3 1,2 1,8 -1,6 -9,16 -19,20 -6,10 -17,17 -30,19 -1,-1 -1,-1 -1,-1 -1,-1 -2,-2 -3,-2l0 0c-3,-2 -7,-3 -10,-4l0 0c-6,0 -11,0 -16,2 -11,-5 -20,-15 -23,-26 -9,-8 -13,-19 -12,-25 1,-6 1,-5 3,-8 2,2 4,4 6,6 4,-2 9,-4 13,-7zm-15 93c4,4 8,7 11,11 5,-3 10,-5 14,-7 4,3 8,7 11,10 5,-2 10,-4 14,-6 4,3 8,7 11,10 5,-2 10,-4 14,-7 4,4 8,7 11,11 3,-1 5,-3 8,-4 1,3 1,3 0,8 0,6 -8,17 -19,21 -6,11 -18,18 -32,19 -1,0 -2,-1 -3,-2 -4,-1 -7,-2 -11,-3l0 0c-5,-1 -9,0 -14,1 -13,-5 -22,-16 -25,-28 -9,-7 -14,-19 -13,-25 1,-6 2,-5 3,-8 2,2 4,4 6,6 5,-2 9,-5 14,-7z"/>
   <path class="fil5" d="M1278 1428l2 -15c2,1 5,2 8,2 1,0 1,0 2,0l-3 17c-4,27 -15,47 -38,57 -17,7 -42,8 -74,1 -1,-2 -2,-5 -3,-7 1,-1 2,-2 3,-4 29,6 51,6 67,-1 21,-8 32,-26 36,-50z"/>
   <path class="fil6" d="M1550 1721c35,26 59,44 81,56 12,6 15,16 2,25 -16,10 -39,13 -54,8 -4,-1 -7,-3 -9,-5 2,3 6,6 11,8 11,4 27,3 42,-2 -22,19 -42,59 -44,85 0,2 0,5 0,7 5,9 6,17 2,22 -5,5 -15,5 -25,0 -1,-1 -3,-2 -5,-4 -2,-1 -4,-2 -6,-4 0,0 0,0 -1,-1 -11,-9 -23,-22 -31,-27 -41,-24 -85,-48 -156,-57 -63,-8 -142,-7 -222,-7 -79,0 -158,-1 -221,7 -71,9 -115,33 -156,57 -8,5 -21,18 -31,27 -1,1 -1,1 -2,1 -1,2 -3,3 -5,4 -2,2 -4,3 -5,4 -10,5 -20,5 -25,0 -4,-5 -3,-13 2,-22 0,-2 0,-5 -1,-7 -1,-26 -21,-66 -43,-85 15,5 31,6 42,2 5,-2 9,-5 10,-8 -2,2 -4,4 -8,5 -15,5 -38,2 -55,-8 -12,-9 -9,-19 3,-25 22,-12 46,-30 81,-56 4,0 7,1 11,0 1,0 1,0 2,0 -42,32 -63,48 -81,60 15,3 58,-7 70,-10 47,-13 118,-36 157,-53 1,0 2,1 3,2 1,1 3,2 4,3 9,4 19,3 27,-3 6,-4 13,-8 20,-11 7,-4 15,-7 22,-9 9,-3 17,-5 26,-6 8,-2 17,-3 26,-4l0 0c0,0 0,0 0,0l0 0c0,0 -1,0 0,0l0 0c0,0 0,0 0,0l0 0c0,0 0,0 0,0l0 0c2,0 4,0 8,0 3,-1 5,-1 8,-1 13,-1 26,-1 38,-1l146 0 1 0c8,0 17,0 27,0 1,0 2,0 4,0 8,1 16,1 23,2 9,1 18,2 26,4 9,1 17,3 25,6 8,2 16,5 23,9 7,3 14,7 20,11l0 0 0 0 0 0c1,2 3,3 5,3 2,1 3,2 5,2 9,2 18,-1 24,-7 39,17 110,40 157,53 12,3 55,13 70,10 -18,-12 -39,-28 -81,-60 1,0 1,0 2,0 4,1 7,0 11,0zm703 -890l-1117 -812 -1118 812 427 1314 1381 0 427 -1314zm-41 13l-1076 -782 -1077 782 411 1266 1331 0 411 -1266zm-1076 -748l1044 759 -399 1227 -1291 0 -399 -1227 1045 -759zm4 -49l1085 788 5 3 -2 6 -415 1276 -1 5 -6 0 -1341 0 -6 0 -1 -5 -415 -1276 -2 -6 5 -3 1085 -788 5 -4 4 4zm282 447c10,5 15,22 13,41 -3,15 -9,27 -18,33 -4,-3 -8,-4 -13,-2 -6,-8 -9,-22 -7,-36 3,-19 13,-34 25,-36zm-149 827c8,-8 17,-12 27,-10 9,1 17,8 23,17 13,8 23,19 27,31l-5 3 -12 -11 -14 7 -11 -11 -15 7 -11 -11 -14 7 -12 -10 -14 7 -5 -4c8,-11 21,-19 36,-22zm118 -744c5,-6 12,-9 20,-7 7,1 13,5 17,13 9,5 17,13 20,23l-4 1 -9 -8 -10 6 -9 -8 -10 5 -9 -8 -10 5 -9 -8 -11 5 -3 -3c6,-8 16,-14 27,-16zm-12 72c6,-6 14,-9 21,-8 7,1 14,6 18,13 10,6 17,15 21,24 -2,1 -3,2 -4,2 -3,-3 -6,-5 -9,-8 -4,2 -8,3 -11,5 -3,-3 -6,-5 -9,-8 -4,2 -7,3 -11,5 -3,-3 -6,-5 -9,-8 -4,2 -7,3 -11,5 -3,-2 -6,-5 -9,-8 -4,2 -7,4 -11,5 -1,-1 -2,-2 -3,-3 6,-8 16,-14 27,-16zm-12 73c7,-6 14,-9 22,-8 8,2 14,7 18,14 11,6 19,15 22,25 -1,1 -3,2 -4,2 -3,-3 -6,-6 -9,-8 -4,1 -8,3 -12,5 -3,-3 -6,-6 -9,-8 -4,1 -7,3 -11,5 -3,-3 -6,-6 -9,-9 -4,2 -8,4 -12,6 -3,-3 -6,-6 -9,-9 -4,2 -8,4 -11,6 -2,-1 -3,-2 -4,-3 6,-9 17,-15 28,-18zm-12 77c7,-6 15,-10 23,-9 8,2 14,7 18,15 11,6 20,15 23,26 -1,0 -3,1 -4,2 -3,-3 -6,-6 -10,-9 -4,2 -8,4 -11,6 -4,-3 -7,-6 -10,-9 -4,2 -8,4 -12,5 -3,-3 -6,-6 -9,-9 -4,2 -8,4 -12,6 -3,-3 -7,-6 -10,-9 -4,2 -8,4 -12,6 -1,-1 -2,-2 -3,-3 6,-9 17,-16 29,-18zm-12 79c6,-7 15,-10 23,-9 8,1 15,7 19,15 12,7 20,16 24,27 -2,1 -3,1 -5,2 -3,-3 -6,-6 -9,-9 -5,2 -9,4 -13,6 -3,-3 -6,-6 -10,-10 -4,2 -8,4 -12,6 -3,-3 -6,-6 -10,-9 -4,2 -8,4 -12,6 -3,-3 -6,-6 -10,-9 -4,2 -8,4 -12,6 -1,-1 -2,-2 -4,-4 7,-9 18,-15 31,-18zm-13 82c7,-7 15,-10 24,-9 8,1 15,7 20,15 12,7 20,17 24,28 -1,1 -3,1 -4,2 -4,-3 -7,-6 -11,-9 -4,2 -8,4 -12,6 -4,-3 -7,-7 -11,-10 -4,2 -8,4 -12,6 -4,-3 -7,-6 -10,-9 -5,2 -9,4 -13,6 -3,-3 -7,-6 -10,-10 -4,2 -9,4 -13,6 -1,-1 -2,-2 -4,-3 7,-10 19,-16 32,-19zm-14 85c7,-7 16,-11 25,-9 9,1 16,7 21,16 12,6 21,16 25,28 -2,1 -3,2 -5,2 -3,-3 -7,-6 -10,-10 -5,3 -9,5 -13,7 -4,-3 -7,-7 -11,-10 -4,2 -9,4 -13,6 -4,-3 -7,-6 -11,-10 -4,3 -8,5 -13,7 -3,-4 -7,-7 -10,-10 -4,2 -9,4 -13,6 -1,-1 -3,-2 -4,-3 7,-10 19,-17 32,-20zm-14 88c8,-7 17,-11 26,-9 9,1 16,7 21,16 13,7 22,18 26,29 -1,1 -3,2 -5,3 -3,-4 -7,-7 -11,-10 -4,2 -9,4 -13,6 -4,-3 -7,-7 -11,-10 -4,2 -9,4 -13,7 -4,-4 -8,-7 -11,-11 -5,3 -9,5 -14,7 -3,-3 -7,-7 -11,-10 -4,2 -8,4 -13,6 -1,-1 -3,-2 -4,-3 7,-11 19,-18 33,-21zm-14 92c7,-7 17,-11 26,-10 9,2 17,8 22,17 13,7 23,18 27,30 -2,1 -3,2 -5,3 -4,-4 -8,-7 -11,-11 -5,3 -10,5 -14,7 -4,-3 -8,-7 -11,-10 -5,2 -10,4 -14,6 -4,-3 -8,-7 -11,-10 -5,2 -10,4 -14,7 -4,-4 -8,-7 -11,-11 -5,2 -10,5 -14,7 -2,-1 -3,-3 -4,-4 7,-10 19,-18 34,-21zm-543 629l-25 -45 9 -5 36 20 -17 -31 8 -4 25 45 -9 5 -35 -19 17 29 -9 5zm713 -20l2 -4c2,1 4,2 6,2 2,1 4,1 5,1 1,0 1,-1 2,-2 0,0 0,-1 -1,-2 0,-1 -1,-2 -3,-2 -1,-1 -3,-1 -4,-1l2 -3c1,0 2,0 3,0 0,0 0,0 0,0 -5,-2 -9,-6 -11,-11 -2,-6 -2,-13 1,-20 3,-8 7,-14 13,-17 6,-3 12,-3 19,-1 6,2 10,6 13,11 1,3 2,6 1,11l-10 -1c0,-3 0,-6 -2,-8 -1,-2 -3,-4 -6,-4 -3,-2 -7,-2 -10,0 -3,2 -6,6 -8,12 -2,6 -3,11 -1,14 1,4 3,6 7,7 3,1 5,1 8,0 2,-1 4,-3 7,-6l8 6c-3,5 -7,8 -12,10 -3,1 -7,1 -11,0 0,0 0,0 0,0 1,0 2,1 2,2 1,2 2,4 1,6 -1,2 -2,3 -4,3 -3,1 -6,1 -10,0 -3,-1 -5,-2 -7,-3zm-622 -20l-11 4 -8 -10 -20 8 0 12 -10 4 1 -56 10 -4 38 42zm-25 -13l-14 -15 0 20 14 -5zm49 -13l-2 -8 22 -6 5 20c-2,3 -4,5 -8,8 -3,3 -7,5 -12,6 -5,1 -10,1 -14,0 -5,-1 -8,-3 -12,-7 -3,-4 -5,-8 -6,-13 -2,-5 -2,-10 -1,-15 2,-4 4,-8 8,-12 2,-2 6,-4 11,-5 6,-2 11,-2 16,0 4,1 7,4 9,9l-9 4c-2,-2 -3,-3 -6,-4 -2,-1 -5,-1 -8,-1 -4,2 -7,4 -9,7 -2,4 -2,9 -1,14 2,6 4,10 8,12 3,3 7,3 11,2 3,0 5,-1 7,-3 1,-1 3,-3 4,-4l-1 -7 -12 3zm83 3l-11 2 -7 -11 -21 4 -2 13 -10 2 10 -55 10 -2 31 47zm-23 -17l-11 -17 -3 20 14 -3zm29 17l-8 -52 22 -3c6,-1 10,-1 13,-1 2,1 4,2 6,5 2,2 3,4 4,7 0,4 0,8 -2,10 -2,3 -5,5 -10,7 3,1 5,2 6,3 2,2 4,4 7,8l8 9 -12 2 -9 -10c-4,-4 -6,-6 -7,-7 -1,-1 -2,-2 -3,-2 -2,0 -3,0 -6,0l-2 0 3 22 -10 2zm6 -32l8 -1c5,-1 8,-1 9,-2 1,0 2,-1 3,-2 0,-2 0,-3 0,-4 0,-2 -1,-3 -2,-4 -1,-1 -2,-2 -4,-2 -1,0 -4,0 -8,1l-8 1 2 13zm92 21l-11 1 -6 -11 -20 2 -4 12 -11 1 16 -54 11 -1 25 50zm-21 -19l-9 -18 -5 20 14 -2zm43 -34l19 -1c4,0 8,0 10,1 3,0 6,2 8,4 2,2 4,5 5,8 2,4 2,8 3,13 0,4 -1,8 -2,11 -1,4 -3,7 -5,9 -2,2 -4,3 -7,5 -2,0 -6,1 -9,1l-20 1 -2 -52zm11 8l1 35 8 -1c3,0 5,0 6,0 2,-1 3,-2 4,-3 1,-1 2,-3 3,-5 1,-2 1,-5 1,-9 0,-5 -1,-8 -2,-10 -1,-2 -2,-4 -3,-5 -1,-1 -3,-2 -5,-2 -1,0 -4,0 -9,0l-4 0zm90 43l-11 -1 -4 -12 -21 0 -5 12 -11 0 21 -52 11 0 20 53zm-19 -21l-6 -20 -8 19 14 1zm25 21l2 -53 10 1 20 35 2 -34 9 0 -2 52 -10 0 -20 -35 -1 34 -10 0zm99 5l-11 -1 -3 -12 -21 -2 -6 12 -11 -1 25 -50 11 1 16 53zm-17 -22l-6 -20 -8 19 14 1zm40 24l7 -51 22 3c6,1 10,2 12,3 2,1 4,3 5,6 2,2 2,5 2,8 -1,4 -3,7 -5,9 -3,3 -7,4 -11,4 2,1 4,3 5,5 1,2 3,5 5,9l4 11 -12 -2 -6 -12c-2,-4 -4,-7 -4,-8 -1,-2 -2,-2 -3,-3 -1,-1 -3,-1 -5,-1l-2 -1 -4 22 -10 -2zm15 -28l7 1c5,1 9,1 10,1 1,0 2,-1 3,-2 1,-1 1,-2 2,-4 0,-1 0,-3 -1,-4 -1,-1 -2,-2 -4,-3 -1,0 -3,0 -7,-1l-8 -1 -2 13zm84 45l-12 -2 -2 -13 -20 -4 -7 11 -11 -3 31 -47 11 3 10 55zm-15 -24l-3 -21 -11 18 14 3zm21 25l13 -51 10 3 -6 23 27 -17 13 3 -24 15 12 36 -13 -3 -8 -28 -10 6 -4 16 -10 -3zm141 54l-10 -6 2 -12 -19 -11 -9 9 -10 -6 43 -35 10 5 -7 56zm-7 -28l3 -20 -15 13 12 7z"/>
  </g>
 </g>
</svg>
